<?xml version="1.0" encoding="iso-8859-1"?>
<!-- Generator: Adobe Illustrator 18.0.0, SVG Export Plug-In . SVG Version: 6.00 Build 0)  -->
<!DOCTYPE svg PUBLIC "-//W3C//DTD SVG 1.1//EN" "http://www.w3.org/Graphics/SVG/1.1/DTD/svg11.dtd">
<svg xmlns="http://www.w3.org/2000/svg" xmlns:xlink="http://www.w3.org/1999/xlink" version="1.1" id="Capa_1" x="0px" y="0px" viewBox="0 0 378.16 378.16" style="enable-background:new 0 0 378.16 378.16;" xml:space="preserve" width="512px" height="512px">
<g>
	<path d="M94.08,20h8.355v92.505c0,5.523,4.477,10,10,10h153.29c5.523,0,10-4.477,10-10V20h8.355c5.523,0,10-4.477,10-10   s-4.477-10-10-10h-190c-5.523,0-10,4.477-10,10S88.557,20,94.08,20z M122.435,102.505V20h133.29v82.505H122.435z" fill="#9aa7ba"/>
	<path d="M339.829,186.509v-8.385c0-25.208-20.508-45.717-45.716-45.717h-5.941c-25.208,0-45.716,20.508-45.716,45.717v34.369   c-1.216-3.26-2.797-6.342-4.688-9.203v-25.166c0-25.208-20.508-45.717-45.716-45.717h-5.941c-25.208,0-45.716,20.508-45.716,45.717   v25.166c-1.891,2.861-3.472,5.943-4.688,9.203v-34.369c0-25.208-20.508-45.717-45.716-45.717h-5.941   c-25.208,0-45.716,20.508-45.716,45.717v8.385c-16.165,7.054-27.496,23.184-27.496,41.918v84.542c0,5.523,4.477,10,10,10H57.08   v35.191h-8.749c-5.523,0-10,4.477-10,10s4.477,10,10,10h37.498c5.523,0,10-4.477,10-10s-4.477-10-10-10H77.08v-35.191h36.245   c5.523,0,10-4.477,10-10v-59.956h2.38c2.793,0,5.316-1.148,7.13-2.994v62.95c0,5.523,4.477,10,10,10h36.245v35.191h-8.749   c-5.523,0-10,4.477-10,10s4.477,10,10,10h37.498c5.523,0,10-4.477,10-10s-4.477-10-10-10h-8.749v-35.191h36.245   c5.523,0,10-4.477,10-10v-62.95c1.814,1.846,4.337,2.994,7.13,2.994h2.38v59.956c0,5.523,4.477,10,10,10h36.245v35.191h-8.749   c-5.523,0-10,4.477-10,10s4.477,10,10,10h37.498c5.523,0,10-4.477,10-10s-4.477-10-10-10h-8.749v-35.191h36.245   c5.523,0,10-4.477,10-10v-84.542C367.325,209.693,355.994,193.563,339.829,186.509z M30.835,302.969v-74.542   c0-14.18,11.536-25.717,25.716-25.717h21.057c14.18,0,25.716,11.537,25.716,25.717v74.542H30.835z M77.608,182.71H58.331v-4.586   c0-14.18,11.536-25.717,25.716-25.717h5.941c14.18,0,25.716,11.537,25.716,25.717v25.069   C107.509,190.86,93.495,182.71,77.608,182.71z M186.109,152.407h5.941c14.18,0,25.716,11.537,25.716,25.717v8.357   c-5.57-2.421-11.708-3.771-18.159-3.771h-21.057c-6.45,0-12.589,1.35-18.159,3.771v-8.357   C160.393,163.944,171.929,152.407,186.109,152.407z M152.835,228.427c0-14.18,11.536-25.717,25.716-25.717h21.057   c14.18,0,25.716,11.537,25.716,25.717v74.542h-72.489V228.427z M347.325,302.969h-72.489v-74.542   c0-14.18,11.536-25.717,25.716-25.717h21.057c14.18,0,25.716,11.537,25.716,25.717V302.969z M288.171,152.407h5.941   c14.18,0,25.716,11.537,25.716,25.717v4.586h-19.277c-15.886,0-29.9,8.15-38.097,20.483v-25.069   C262.455,163.944,273.991,152.407,288.171,152.407z" fill="#9aa7ba"/>
</g>
<g>
</g>
<g>
</g>
<g>
</g>
<g>
</g>
<g>
</g>
<g>
</g>
<g>
</g>
<g>
</g>
<g>
</g>
<g>
</g>
<g>
</g>
<g>
</g>
<g>
</g>
<g>
</g>
<g>
</g>
</svg>
