<?xml version="1.0" encoding="iso-8859-1"?>
<!-- Generator: Adobe Illustrator 19.0.0, SVG Export Plug-In . SVG Version: 6.00 Build 0)  -->
<svg xmlns="http://www.w3.org/2000/svg" xmlns:xlink="http://www.w3.org/1999/xlink" version="1.1" id="Layer_1" x="0px" y="0px" viewBox="0 0 512 512" style="enable-background:new 0 0 512 512;" xml:space="preserve" width="512px" height="512px">
<g>
	<g>
		<path d="M296.5,496.358v-25.212h0.001c13.219-2.138,23.347-13.625,23.347-27.438c0-9.635-4.929-18.139-12.396-23.129    c7.627-7.253,12.396-17.485,12.396-28.817c0-19.262-13.76-35.368-31.966-39.011v-36.878c0-19.752-16.07-35.822-35.823-35.822    H68.314c-19.752,0-35.823,16.07-35.823,35.822v36.878C14.285,356.395,0.524,372.5,0.524,391.762    c0,11.332,4.77,21.563,12.396,28.817c-7.467,4.99-12.396,13.492-12.396,23.129c0,13.975,10.367,25.57,23.813,27.509v25.141H0.353    V512H511.31v-15.642H296.5z M280.06,367.617c13.314,0,24.145,10.832,24.145,24.145c0,13.314-10.831,24.145-24.145,24.145    c-13.314,0-24.145-10.832-24.145-24.145S266.746,367.617,280.06,367.617z M48.134,315.874c0-11.128,9.053-20.181,20.182-20.181    h183.743c11.128,0,20.182,9.053,20.182,20.181v36.878c-18.206,3.643-31.966,19.749-31.966,39.011    c0,9.075,3.061,17.445,8.194,24.145H71.906c5.134-6.702,8.194-15.071,8.194-24.145c0-19.262-13.76-35.368-31.966-39.011V315.874z     M40.313,367.617c13.314,0,24.145,10.832,24.145,24.145c0,13.314-10.831,24.145-24.145,24.145s-24.146-10.832-24.146-24.145    S26.999,367.617,40.313,367.617z M280.859,496.358H39.979v-24.851h240.88V496.358z M28.325,455.866    c-6.704,0-12.159-5.454-12.159-12.158c0-6.704,5.454-12.158,12.159-12.158h263.723c6.704,0,12.159,5.454,12.159,12.158    c0,6.704-5.454,12.158-12.159,12.158H28.325z" fill="#9aa7ba"/>
	</g>
</g>
<g>
	<g>
		<rect x="87.948" y="335.772" width="15.642" height="15.642" fill="#9aa7ba"/>
	</g>
</g>
<g>
	<g>
		<rect x="216.208" y="335.772" width="15.642" height="15.642" fill="#9aa7ba"/>
	</g>
</g>
<g>
	<g>
		<rect x="32.681" y="383.739" width="15.642" height="15.642" fill="#9aa7ba"/>
	</g>
</g>
<g>
	<g>
		<rect x="271.475" y="383.739" width="16.684" height="15.642" fill="#9aa7ba"/>
	</g>
</g>
<g>
	<g>
		<path d="M504.013,223.886V165.8h-0.001h-87.593v58.085h-57.352v-59.128h-86.55v59.128h-32.243v39.616h271.374v-39.616H504.013z     M480.028,181.442h8.342v40.668h-8.342V181.442z M456.044,181.442h8.342v40.668h-8.342V181.442z M432.061,181.442h8.342v40.668    h-8.342V181.442z M336.126,180.399h7.299v40.668h-7.299V180.399z M312.142,180.399h8.342v40.668h-8.342V180.399z M288.158,180.399    h8.342v40.668h-8.342V180.399z M496.006,247.86H255.915v-8.333h240.091V247.86z" fill="#9aa7ba"/>
	</g>
</g>
<g>
	<g>
		<path d="M464.387,359.616v-23.844h-57.352v-32.326h-86.55v72.145l86.487-0.194h0.064l88.97-0.216v8.314H328.01v15.642h183.636    v-39.636L464.387,359.616z M343.425,359.756h-7.299v-40.668h7.299V359.756z M368.452,359.756h-9.385v-40.668h9.385V359.756z     M391.393,359.756h-7.299v-40.668h7.299V359.756z M448.745,359.653l-41.711,0.101v-8.342h41.711V359.653z" fill="#9aa7ba"/>
	</g>
</g>
<g>
	<g>
		<rect x="359.068" y="56.31" width="16.684" height="15.642" fill="#9aa7ba"/>
	</g>
</g>
<g>
	<g>
		<path d="M480.028,88.252v-23.6h-56.29V32.31h-111.54v55.94h-71.925v39.617h271.374V88.252H480.028z M423.738,80.293h40.648v7.958    h-40.648V80.293z M327.84,71.951h23.928V56.31H327.84v-8.358h80.258v8.358h-24.004v15.642h24.004v16.301H327.84V71.951z     M496.006,112.227H255.915v-8.334h240.091V112.227z" fill="#9aa7ba"/>
	</g>
</g>
<g>
	<g>
		<rect x="80.648" y="167.886" width="127.218" height="15.642" fill="#9aa7ba"/>
	</g>
</g>
<g>
	<g>
		<rect x="135.915" width="15.642" height="32.326" fill="#9aa7ba"/>
	</g>
</g>
<g>
	<g>
		<path d="M151.556,48.779v-9.153h-15.642v9.285c-27.107,4.004-47.967,27.21-47.967,55.154v56.522h15.642v-8.342h16.684v-15.642    h-16.684v-32.539c0-22.128,18.243-40.128,40.668-40.128s40.668,18.001,40.668,40.128v32.539H168.24v15.642h16.684v8.342h15.642    v-56.522C200.566,75.765,179.167,52.337,151.556,48.779z" fill="#9aa7ba"/>
	</g>
</g>
<g>
	<g>
		<rect x="128.616" y="136.603" width="32.326" height="15.642" fill="#9aa7ba"/>
	</g>
</g>
<g>
	<g>
		<rect x="135.915" y="191.87" width="16.684" height="15.642" fill="#9aa7ba"/>
	</g>
</g>
<g>
</g>
<g>
</g>
<g>
</g>
<g>
</g>
<g>
</g>
<g>
</g>
<g>
</g>
<g>
</g>
<g>
</g>
<g>
</g>
<g>
</g>
<g>
</g>
<g>
</g>
<g>
</g>
<g>
</g>
</svg>
