<?xml version="1.0" encoding="iso-8859-1"?>
<!-- Generator: Adobe Illustrator 19.0.0, SVG Export Plug-In . SVG Version: 6.00 Build 0)  -->
<svg version="1.1" id="Layer_1" xmlns="http://www.w3.org/2000/svg" xmlns:xlink="http://www.w3.org/1999/xlink" x="0px" y="0px"
	 viewBox="0 0 511.993 511.993" style="enable-background:new 0 0 511.993 511.993;" xml:space="preserve">
<g>
	<path style="fill:#0377BC;" d="M256.003,409.588v93.879H119.451c-9.414-0.026-17.043-7.655-17.069-17.069v-19.373
		c0.06-11.445,5.778-22.121,15.277-28.505c8.705-5.641,18.562-9.251,28.847-10.583c2.321-0.358,4.651-0.58,6.998-0.683
		c1.963-0.171,3.926-0.171,5.889-0.171c6.503,0.051,12.981,0.683,19.373,1.878l0.427-2.304l10.583-21.165l6.145-12.29
		c9.439,9.012,21.592,14.654,34.565,16.045c2.219,0.171,4.523,0.341,6.913,0.341H256.003z"/>
	<path style="fill:#0377BC;" d="M409.623,467.025v19.373c-0.026,9.414-7.655,17.043-17.069,17.069H256.003v-93.879h18.605
		c15.422,0.085,30.28-5.786,41.478-16.386l6.145,12.29l10.583,21.165l0.427,2.304c6.392-1.195,12.87-1.826,19.373-1.878
		c1.963,0,3.926,0,5.889,0.171c2.347,0.094,4.677,0.324,6.998,0.683c10.284,1.331,20.141,4.941,28.847,10.583
		C403.837,444.903,409.555,455.58,409.623,467.025z"/>
</g>
<g>
	<path style="fill:#02A9F4;" d="M230.399,409.588v93.879H119.451c-9.414-0.026-17.043-7.655-17.069-17.069v-19.373
		c0.06-11.445,5.778-22.121,15.277-28.505c8.705-5.641,18.562-9.251,28.847-10.583c2.304,0.256,4.523,0.597,6.657,1.024l0.341-1.707
		c1.963-0.171,3.926-0.171,5.889-0.171c6.503,0.051,12.981,0.683,19.373,1.878l0.427-2.304l10.583-21.165
		c7.015,2.731,14.492,4.122,22.019,4.097L230.399,409.588L230.399,409.588z"/>
	<path style="fill:#02A9F4;" d="M409.623,467.025v19.373c-0.026,9.414-7.655,17.043-17.069,17.069H281.606v-93.879h18.605
		c7.527,0.026,15.004-1.366,22.019-4.097l10.583,21.165l0.427,2.304c6.392-1.195,12.87-1.826,19.373-1.878
		c1.963,0,3.926,0,5.889,0.171l0.341,1.707c2.134-0.427,4.353-0.768,6.657-1.024c10.284,1.331,20.141,4.941,28.847,10.583
		C403.837,444.903,409.555,455.58,409.623,467.025z"/>
</g>
<path style="fill:#FDD834;" d="M366.951,170.622v34.138c-0.017,31.91-22.13,59.554-53.255,66.569
	c-4.924,1.135-9.968,1.715-15.021,1.707H213.33c-5.052,0.009-10.096-0.572-15.021-1.707c-31.125-7.015-53.238-34.658-53.255-66.569
	v-34.138c-0.017-22.514,8.876-44.115,24.75-60.083c16.062-16.096,37.85-25.177,60.595-25.262h51.207
	c22.744,0.085,44.533,9.166,60.595,25.262C358.066,126.508,366.968,148.108,366.951,170.622z"/>
<path style="fill:#FFEB3A;" d="M332.813,170.622v34.138c-0.017,31.91-22.13,59.554-53.255,66.569
	c-4.924,1.135-9.968,1.715-15.021,1.707H213.33c-5.052,0.009-10.096-0.572-15.021-1.707c-31.125-7.015-53.238-34.658-53.255-66.569
	v-34.138c-0.017-22.514,8.876-44.115,24.75-60.083c16.062-16.096,37.85-25.177,60.595-25.262h17.069
	c22.744,0.085,44.533,9.166,60.595,25.262C323.928,126.508,332.83,148.108,332.813,170.622z"/>
<path d="M298.786,281.562c-0.043,0-0.085,0-0.128,0h-85.336c-0.043,0-0.085,0-0.119,0c-5.624,0-11.283-0.64-16.813-1.92
	c-35.222-7.946-59.861-38.738-59.878-74.881v-34.138c-0.026-24.929,9.644-48.408,27.225-66.099
	c17.794-17.829,41.452-27.686,66.62-27.78h51.241c25.194,0.094,48.851,9.951,66.637,27.763c17.598,17.7,27.259,41.179,27.242,66.125
	v34.129c-0.017,36.152-24.656,66.944-59.921,74.899C310.077,280.922,304.419,281.562,298.786,281.562z M213.313,264.493h85.362
	c0.034,0,0.068,0,0.094,0c4.37,0,8.731-0.504,13.007-1.485c27.464-6.196,46.624-30.144,46.641-58.256v-34.138c0,0,0,0,0-0.009
	c0.017-20.397-7.894-39.591-22.266-54.057c-14.56-14.585-33.95-22.668-54.578-22.744h-51.181
	c-20.602,0.077-39.984,8.159-54.561,22.761c-14.364,14.449-22.275,33.651-22.249,54.049v34.146
	c0.017,28.113,19.177,52.06,46.598,58.248C204.523,264.007,208.653,264.741,213.313,264.493z"/>
<g>
	<ellipse style="fill:#CFD8DC;" cx="209.063" cy="174.89" rx="29.871" ry="38.405"/>
	<ellipse style="fill:#CFD8DC;" cx="302.942" cy="174.89" rx="29.871" ry="38.405"/>
</g>
<g>
	<ellipse style="fill:#FFFFFF;" cx="196.261" cy="174.89" rx="17.069" ry="38.405"/>
	<ellipse style="fill:#FFFFFF;" cx="290.14" cy="174.89" rx="17.069" ry="38.405"/>
</g>
<path d="M209.063,221.829c-21.174,0-38.405-21.055-38.405-46.94s17.231-46.94,38.405-46.94s38.405,21.055,38.405,46.94
	S230.237,221.829,209.063,221.829z M209.063,145.019c-11.564,0-21.336,13.681-21.336,29.871s9.772,29.871,21.336,29.871
	s21.336-13.681,21.336-29.871S220.627,145.019,209.063,145.019z"/>
<path d="M302.942,221.829c-21.174,0-38.405-21.055-38.405-46.94s17.231-46.94,38.405-46.94s38.405,21.055,38.405,46.94
	S324.125,221.829,302.942,221.829z M302.942,145.019c-11.564,0-21.336,13.681-21.336,29.871s9.772,29.871,21.336,29.871
	s21.336-13.681,21.336-29.871S314.515,145.019,302.942,145.019z"/>
<path style="fill:#C52828;" d="M281.606,213.295c0,14.142-11.462,25.603-25.603,25.603c-14.142,0-25.603-11.462-25.603-25.603
	c-0.017-6.307,2.33-12.401,6.572-17.069c9.362,10.514,25.475,11.445,35.981,2.082c0.734-0.649,1.425-1.348,2.082-2.082
	C279.276,200.894,281.614,206.979,281.606,213.295z"/>
<path d="M256.003,247.433c-18.827,0-34.138-15.311-34.138-34.138c-0.017-8.441,3.107-16.548,8.791-22.804
	c1.613-1.775,3.909-2.799,6.316-2.799c0.009,0,0.026,0,0.043,0c2.415,0.009,4.72,1.05,6.333,2.859
	c6.213,6.981,16.958,7.587,23.939,1.383c0.452-0.41,0.922-0.871,1.366-1.366c1.604-1.818,3.909-2.859,6.333-2.876
	c0.017,0,0.034,0,0.051,0c2.407,0,4.702,1.016,6.316,2.799c5.684,6.256,8.799,14.364,8.79,22.821
	C290.132,232.122,274.821,247.433,256.003,247.433z M239.471,209.01c-0.358,1.383-0.546,2.816-0.538,4.267
	c0,9.431,7.655,17.086,17.069,17.086c9.414,0,17.069-7.655,17.069-17.069v-0.009c0-1.451-0.179-2.893-0.538-4.276
	C262.199,214.737,249.627,214.635,239.471,209.01z"/>
<path style="fill:#CFD8DC;" d="M274.608,409.588h-37.21c-30.861,1.109-56.78-23.009-57.889-53.87
	c-0.171-4.634,0.247-9.277,1.22-13.809l1.622-6.316l9.388-37.893l6.145-24.665l0.427-1.707c4.924,1.135,9.968,1.715,15.021,1.707
	h85.345c5.052,0.009,10.096-0.572,15.021-1.707l6.572,26.372l9.388,37.893l1.622,6.316c6.512,30.186-12.674,59.938-42.86,66.458
	C283.876,409.34,279.242,409.75,274.608,409.588z"/>
<path style="fill:#FFFFFF;" d="M249.004,409.588h-11.607c-30.861,1.109-56.78-23.009-57.889-53.87
	c-0.171-4.634,0.247-9.277,1.22-13.809l1.622-6.316l9.388-37.893l6.145-24.665h75.189c5.052,0.009,10.096-0.572,15.021-1.707
	l0.427,1.707l6.145,24.665l9.388,37.893l1.622,6.316c6.512,30.186-12.674,59.938-42.86,66.458
	C258.273,409.34,253.638,409.75,249.004,409.588z"/>
<path d="M235.059,418.156c-16.07,0-31.56-6.077-43.586-17.265c-12.605-11.726-19.885-27.66-20.508-44.866
	c-0.188-5.334,0.282-10.694,1.417-15.917l17.641-70.845c1.127-4.506,5.658-7.306,10.19-6.247c4.301,0.99,8.432,1.724,13.092,1.485
	h85.362c0.034,0,0.068,0,0.094,0c4.37,0,8.731-0.504,13.007-1.485c4.574-1.05,9.072,1.741,10.199,6.256l17.564,70.52
	c3.713,17.146,0.563,34.377-8.756,48.851c-9.32,14.474-23.734,24.434-40.564,28.07c-5.172,1.109-10.472,1.587-15.763,1.408H237.38
	C236.621,418.139,235.836,418.156,235.059,418.156z M204.676,281.076l-15.678,62.959c-0.751,3.516-1.101,7.459-0.964,11.376
	c0.452,12.648,5.812,24.357,15.072,32.986c9.26,8.62,21.268,12.972,33.976,12.657l37.518-0.009c0.102,0,0.205,0,0.307,0.009
	c3.892,0.137,7.869-0.196,11.709-1.033c12.358-2.671,22.949-10.002,29.811-20.636s9.166-23.299,6.495-35.683l-15.601-62.634
	c-2.885,0.333-5.71,0.461-8.671,0.495h-85.336C210.497,281.562,207.552,281.408,204.676,281.076z"/>
<path style="fill:#0377BC;" d="M294.493,366.232c-4.848,5.983-12.187,9.388-19.885,9.217h-37.21
	c-7.698,0.171-15.038-3.235-19.885-9.217c-3.73-4.481-5.095-10.472-3.67-16.13l1.536-6.059l9.217-36.869h62.814l9.132,36.613
	l1.707,6.572C299.571,355.94,298.18,361.829,294.493,366.232z"/>
<path style="fill:#02A9F4;" d="M268.89,366.232c-4.822,6.017-12.179,9.422-19.885,9.217h-11.607
	c-7.698,0.171-15.038-3.235-19.885-9.217c-3.73-4.481-5.095-10.472-3.67-16.13l1.536-6.059l9.217-36.869h37.296l9.047,36.613
	l1.707,6.572C273.968,355.94,272.576,361.829,268.89,366.232z"/>
<path d="M275.188,383.984c-0.256,0-0.521-0.009-0.777-0.009h-36.929c-10.113-0.077-20.15-4.412-26.593-12.349
	c-5.36-6.512-7.357-15.354-5.3-23.606l10.685-42.903c0.939-3.806,4.361-6.486,8.287-6.486h62.882c3.926,0,7.34,2.671,8.287,6.486
	l10.753,43.15c1.954,8.321-0.094,17.009-5.428,23.436C294.706,379.512,285.31,383.984,275.188,383.984z M231.235,315.7l-9.106,36.51
	c-0.734,2.97-0.009,6.213,1.971,8.611c3.243,3.994,7.877,6.333,13.092,6.085c0.068,0,0.128,0,0.196,0h37.21
	c5.223,0.051,10.045-2.082,13.254-6.034c1.989-2.407,2.731-5.573,2.04-8.534l-9.132-36.638H231.235z"/>
<path style="fill:#0377BC;" d="M401.089,312.807v5.803c0.017,9.934-5.752,18.964-14.765,23.128
	c-4.933,2.373-10.514,3.064-15.874,1.963l-40.795-8.108l-9.388-37.893l50.183-9.985c5.36-1.101,10.941-0.41,15.874,1.963
	C395.336,293.843,401.097,302.873,401.089,312.807z"/>
<path style="fill:#02A9F4;" d="M401.089,312.807v5.803c0.017,9.934-5.752,18.964-14.765,23.128l-31.065-6.145l-9.388-37.893
	l40.453-8.022C395.336,293.843,401.097,302.873,401.089,312.807z"/>
<path style="fill:#0377BC;" d="M191.738,297.701l-9.388,37.893l-40.795,8.108c-5.36,1.101-10.941,0.41-15.874-1.963
	c-9.012-4.165-14.782-13.194-14.765-23.128v-5.803c-0.017-9.934,5.752-18.964,14.765-23.128c4.933-2.373,10.514-3.064,15.874-1.963
	L191.738,297.701z"/>
<path style="fill:#02A9F4;" d="M166.135,297.701l-9.388,37.893l-31.065,6.145c-9.012-4.165-14.782-13.194-14.765-23.128v-5.803
	c-0.017-9.934,5.752-18.964,14.765-23.128L166.135,297.701z"/>
<path d="M375.468,352.731c-0.009,0-0.017,0-0.026,0c-2.245,0-4.489-0.222-6.691-0.666l-40.761-8.108
	c-3.243-0.64-5.82-3.098-6.614-6.316l-9.396-37.884c-0.555-2.262-0.171-4.66,1.084-6.623c1.255-1.963,3.252-3.345,5.53-3.789
	l50.183-9.985c8.944-1.792,18.042,0.009,25.629,5.069c7.596,5.061,12.759,12.768,14.551,21.712c0.435,2.185,0.657,4.412,0.666,6.631
	c0,0.017,0,0.026,0,0.043v5.812C409.597,337.429,394.278,352.731,375.468,352.731z M336.628,328.271l35.478,7.058
	c1.118,0.222,2.228,0.333,3.345,0.333h0.009c9.422,0,17.086-7.647,17.095-17.06v-5.778c-0.009-1.127-0.119-2.262-0.341-3.371
	c-0.888-4.455-3.465-8.313-7.271-10.847c-3.798-2.526-8.355-3.422-12.827-2.535l-41.426,8.244L336.628,328.271z"/>
<path d="M136.452,352.739c-6.665,0-13.186-1.954-18.861-5.744c-7.587-5.061-12.759-12.768-14.543-21.712
	c-0.444-2.185-0.666-4.438-0.666-6.674v-5.812c0.017-18.819,15.336-34.121,34.146-34.121c0.009,0,0.017,0,0.017,0
	c2.245,0,4.498,0.222,6.7,0.666l50.157,9.985c2.287,0.452,4.284,1.826,5.539,3.789s1.639,4.37,1.075,6.623l-9.388,37.884
	c-0.794,3.217-3.38,5.675-6.623,6.316l-40.795,8.108C140.966,352.518,138.696,352.739,136.452,352.739z M136.537,295.746
	c-9.422,0-17.077,7.647-17.086,17.06v5.803c0,1.109,0.111,2.219,0.333,3.311c1.852,9.251,10.873,15.243,20.099,13.408l35.495-7.058
	l5.931-23.948l-41.418-8.244C138.764,295.857,137.655,295.746,136.537,295.746C136.546,295.746,136.537,295.746,136.537,295.746z"/>
<path d="M213.33,187.691c-4.711,0-8.534-3.823-8.534-8.534v-8.534c0-4.711,3.823-8.534,8.534-8.534s8.534,3.823,8.534,8.534v8.534
	C221.865,183.868,218.041,187.691,213.33,187.691z"/>
<path d="M298.675,187.691c-4.72,0-8.534-3.823-8.534-8.534v-8.534c0-4.711,3.815-8.534,8.534-8.534s8.534,3.823,8.534,8.534v8.534
	C307.209,183.868,303.394,187.691,298.675,187.691z"/>
<path style="fill:#C52828;" d="M203.686,89.63c-12.81,4.148-24.426,11.325-33.882,20.909c-4.754-11.001-11.402-21.08-19.629-29.785
	c-4.515-4.813-9.456-9.217-14.765-13.143c-6.572-4.882-13.638-9.055-21.08-12.46c-10.258-4.677-14.782-16.779-10.113-27.037
	c0.649-1.434,1.468-2.782,2.432-4.028l5.462-7.254c5.94-7.869,16.565-10.54,25.518-6.401c8.654,4.122,16.719,9.371,23.982,15.618
	c3.67,2.987,7.596,6.486,11.692,10.497C188.503,50.807,199.086,69.293,203.686,89.63z"/>
<path style="fill:#F44335;" d="M179.192,64.368c-10.677,3.456-20.542,9.029-29.017,16.386c-4.515-4.813-9.456-9.217-14.765-13.143
	c-8.662-12.571-19.928-23.137-33.028-30.98c-0.009-4.54,1.494-8.953,4.267-12.546l5.462-7.254c5.94-7.869,16.565-10.54,25.518-6.401
	c8.654,4.122,16.719,9.371,23.982,15.618C170.171,37.399,176.171,50.474,179.192,64.368z"/>
<path style="fill:#C52828;" d="M308.319,89.63c12.81,4.148,24.426,11.325,33.882,20.909c4.754-11.001,11.402-21.08,19.629-29.785
	c4.515-4.813,9.456-9.217,14.765-13.143c6.572-4.882,13.638-9.055,21.08-12.46c10.258-4.677,14.782-16.779,10.113-27.037
	c-0.649-1.434-1.468-2.782-2.432-4.028l-5.462-7.254c-5.94-7.869-16.565-10.54-25.518-6.401
	c-8.654,4.122-16.719,9.371-23.982,15.618c-3.67,2.987-7.596,6.486-11.692,10.497C323.493,50.807,312.91,69.293,308.319,89.63z"/>
<path style="fill:#F44335;" d="M332.813,64.368c10.677,3.456,20.542,9.029,29.017,16.386c4.515-4.813,9.456-9.217,14.765-13.143
	c8.662-12.571,19.928-23.137,33.028-30.98c0.009-4.54-1.494-8.953-4.267-12.546l-5.462-7.254c-5.94-7.869-16.565-10.54-25.518-6.401
	c-8.654,4.122-16.719,9.371-23.982,15.618C341.825,37.399,335.825,50.474,332.813,64.368z"/>
<path d="M169.796,119.074c-0.512,0-1.016-0.043-1.528-0.137c-2.774-0.504-5.121-2.347-6.273-4.924
	c-10.156-22.804-28.317-40.931-51.139-51.062c-7.101-3.217-12.469-8.961-15.183-16.19c-2.714-7.229-2.458-15.089,0.734-22.121
	c0.939-2.065,2.117-4.02,3.499-5.795l5.377-7.143c8.304-11.001,23.402-14.799,35.913-9.012c14.44,7.135,27.242,16.506,38.243,27.942
	c16.19,15.174,27.558,35.034,32.55,57.113c0.973,4.301-1.494,8.637-5.692,10.002c-11.453,3.721-21.985,10.216-30.442,18.784
	C174.259,118.17,172.066,119.074,169.796,119.074z M128.916,17.01c-3.781,0-7.579,1.75-9.994,4.959l-5.462,7.254
	c-0.649,0.828-1.127,1.622-1.511,2.475c-1.306,2.876-1.417,6.094-0.299,9.064s3.311,5.317,6.196,6.623
	c23.111,10.258,42.152,27.583,54.561,49.423c6.426-5.044,13.519-9.243,21.037-12.443c-4.89-15.874-13.783-30.135-25.987-41.58
	c-9.943-10.318-21.157-18.528-33.617-24.69C132.278,17.36,130.597,17.01,128.916,17.01z"/>
<rect x="179.186" y="390.477" transform="matrix(-0.8944 -0.4472 0.4472 -0.8944 172.4613 859.8307)" width="17.068" height="38.165"/>
<path d="M256.003,511.993H119.451c-14.082-0.034-25.561-11.513-25.603-25.578v-19.39c0.077-14.338,7.203-27.618,19.049-35.589
	c14.167-8.936,30.272-13.237,46.743-12.887c22.992,0.922,45.839,7.007,66.168,17.607c4.182,2.176,5.803,7.323,3.627,11.513
	c-2.176,4.165-7.331,5.812-11.513,3.627c-18.119-9.431-38.473-14.859-58.871-15.678c-12.938-0.358-25.757,3.132-36.835,10.13
	c-6.947,4.677-11.248,12.699-11.3,21.336v19.322c0.009,4.685,3.858,8.526,8.552,8.534h128v-85.345c0-4.72,3.823-8.534,8.534-8.534
	s8.534,3.815,8.534,8.534v93.879C264.528,508.178,260.714,511.993,256.003,511.993z"/>
<g>
	<path style="fill:#F44335;" d="M162.123,439.458c0.009,16.489-13.348,29.862-29.837,29.871
		c-11.334,0.009-21.695-6.409-26.747-16.557c2.612-5.795,6.819-10.736,12.119-14.253c12.469-7.869,26.995-11.846,41.734-11.436
		C161.21,430.949,162.149,435.174,162.123,439.458z"/>
	<path style="fill:#F44335;" d="M349.882,439.458c-0.009,16.489,13.348,29.862,29.837,29.871
		c11.334,0.009,21.695-6.409,26.747-16.557c-2.612-5.795-6.819-10.736-12.119-14.253c-12.469-7.869-26.995-11.846-41.734-11.436
		C350.786,430.949,349.848,435.174,349.882,439.458z"/>
</g>
<path d="M132.261,477.855c-14.671,0-27.831-8.15-34.36-21.285c-1.135-2.296-1.186-4.976-0.137-7.306
	c3.277-7.288,8.534-13.459,15.191-17.863c14.107-8.901,30.221-13.203,46.684-12.853c3.209,0.094,6.102,1.98,7.476,4.89
	c2.355,4.984,3.576,10.532,3.55,16.045c-0.009,21.157-17.214,38.362-38.371,38.371C132.278,477.855,132.27,477.855,132.261,477.855z
	 M115.397,452.524c3.986,5.172,10.139,8.261,16.864,8.261h0.009c11.76-0.009,21.319-9.576,21.311-21.328c0-0.026,0-0.043,0-0.068
	c0.009-1.238-0.102-2.466-0.324-3.687c-11.009,0.666-21.643,4.088-31.057,10.028C119.553,447.498,117.232,449.811,115.397,452.524z"
	/>
<rect x="305.206" y="401.032" transform="matrix(-0.4472 -0.8944 0.8944 -0.4472 102.9874 882.7829)" width="38.165" height="17.068"/>
<path d="M392.58,511.993H256.003c-4.711,0-8.534-3.815-8.534-8.534v-93.879c0-4.72,3.823-8.534,8.534-8.534
	c4.711,0,8.534,3.815,8.534,8.534v85.345h128.026c4.677-0.009,8.517-3.849,8.534-8.569v-19.339
	c-0.051-8.586-4.353-16.608-11.504-21.422c-10.873-6.862-23.897-10.489-36.741-9.985c-20.295,0.811-40.65,6.23-58.768,15.669
	c-4.182,2.193-9.345,0.546-11.513-3.627c-2.176-4.182-0.555-9.337,3.627-11.513c20.329-10.591,43.184-16.676,66.065-17.598
	c16.557-0.469,32.678,3.934,46.632,12.742c12.059,8.099,19.177,21.387,19.262,35.674v19.416
	C418.106,500.488,406.627,511.959,392.58,511.993z"/>
<path d="M379.744,477.855c-0.009,0-0.026,0-0.034,0c-10.25-0.009-19.894-4.003-27.14-11.257
	c-7.246-7.246-11.223-16.873-11.223-27.123c-0.034-5.505,1.186-11.052,3.542-16.036c1.374-2.91,4.259-4.805,7.476-4.89
	c16.582-0.393,32.576,3.951,46.53,12.75c6.811,4.498,12.059,10.677,15.345,17.957c1.058,2.33,1.007,5.018-0.137,7.305
	C407.575,469.704,394.406,477.855,379.744,477.855z M358.732,435.712c-0.213,1.22-0.324,2.449-0.316,3.678c0,0.026,0,0.051,0,0.077
	c-0.009,5.692,2.21,11.052,6.23,15.08s9.379,6.247,15.08,6.247h0.009c6.725,0,12.879-3.081,16.864-8.253
	c-1.843-2.722-4.199-5.078-6.956-6.904C380.35,439.783,369.741,436.377,358.732,435.712z"/>
<path d="M127.985,68.209c-2.185,0-4.37-0.836-6.034-2.501c-3.337-3.337-3.337-8.731,0-12.068l8.534-8.534
	c3.337-3.337,8.731-3.337,12.068,0c3.337,3.337,3.337,8.731,0,12.068l-8.534,8.534C132.347,67.372,130.162,68.209,127.985,68.209z"
	/>
<path d="M153.589,85.278c-2.185,0-4.37-0.836-6.034-2.501c-3.337-3.337-3.337-8.731,0-12.068l8.534-8.534
	c3.337-3.337,8.731-3.337,12.068,0s3.337,8.731,0,12.068l-8.534,8.534C157.95,84.441,155.765,85.278,153.589,85.278z"/>
<path d="M342.192,119.074c-2.27,0-4.455-0.896-6.077-2.543c-8.458-8.569-18.981-15.072-30.434-18.784
	c-4.19-1.357-6.657-5.692-5.693-9.994c4.984-22.079,16.352-41.938,32.866-57.428c10.694-11.129,23.495-20.5,37.739-27.541
	c12.708-5.863,27.822-2.091,36.109,8.91l5.471,7.254c1.306,1.69,2.475,3.636,3.405,5.692c3.192,7.041,3.456,14.893,0.742,22.121
	c-2.722,7.229-8.091,12.972-15.123,16.164c-22.881,10.156-41.051,28.292-51.207,51.096c-1.144,2.577-3.491,4.421-6.264,4.924
	C343.208,119.023,342.696,119.074,342.192,119.074z M318.543,84.347c7.519,3.2,14.611,7.399,21.037,12.443
	c12.401-21.831,31.467-39.165,54.612-49.449c2.825-1.28,5.027-3.627,6.136-6.589c1.118-2.961,1.007-6.179-0.299-9.064
	c-0.384-0.845-0.871-1.647-1.425-2.381l-5.539-7.34c-3.474-4.617-9.815-6.222-15.115-3.789
	c-12.273,6.068-23.478,14.27-33.105,24.289C332.36,54.178,323.433,68.473,318.543,84.347z"/>
<path d="M384.011,68.209c-2.185,0-4.37-0.836-6.034-2.501l-8.534-8.534c-3.337-3.337-3.337-8.731,0-12.068
	c3.337-3.337,8.731-3.337,12.068,0l8.534,8.534c3.337,3.337,3.337,8.731,0,12.068C388.381,67.372,386.196,68.209,384.011,68.209z"/>
<path d="M358.408,85.278c-2.185,0-4.37-0.836-6.034-2.501l-8.534-8.534c-3.337-3.337-3.337-8.731,0-12.068
	c3.337-3.337,8.731-3.337,12.068,0l8.534,8.534c3.337,3.337,3.337,8.731,0,12.068C362.777,84.441,360.592,85.278,358.408,85.278z"/>
<g>
</g>
<g>
</g>
<g>
</g>
<g>
</g>
<g>
</g>
<g>
</g>
<g>
</g>
<g>
</g>
<g>
</g>
<g>
</g>
<g>
</g>
<g>
</g>
<g>
</g>
<g>
</g>
<g>
</g>
</svg>
