<?xml version="1.0" encoding="iso-8859-1"?>
<!-- Generator: Adobe Illustrator 16.0.0, SVG Export Plug-In . SVG Version: 6.00 Build 0)  -->
<!DOCTYPE svg PUBLIC "-//W3C//DTD SVG 1.1//EN" "http://www.w3.org/Graphics/SVG/1.1/DTD/svg11.dtd">
<svg xmlns="http://www.w3.org/2000/svg" xmlns:xlink="http://www.w3.org/1999/xlink" version="1.1" id="Capa_1" x="0px" y="0px" width="512px" height="512px" viewBox="0 0 380.744 380.744" style="enable-background:new 0 0 380.744 380.744;" xml:space="preserve">
<g>
	<g>
		<path d="M55.583,263.755V158.171l5.734,0.012l0.011-7.018c0,0-7.97-17.515-0.558-44.366c-0.012-5.664-0.012-77.671-0.012-77.671    h-0.023c0-0.081,0.035-0.139,0.023-0.209c0.012-5.321-4.305-9.638-9.638-9.638c-5.327,0-9.649,4.305-9.649,9.638    c0,0.081,0.011,0.128,0.011,0.197l-0.011,0.012c0,0,0,70.926,0,77.502c5.583,32.492-1.249,44.558-1.249,44.558v6.995l5.733,0.012    v105.584C20.188,266.195,0,287.876,0,314.296c0.023,28.036,22.75,50.773,50.779,50.773c28.03,0,50.78-22.726,50.78-50.773    C101.547,287.876,81.366,266.195,55.583,263.755z M40.485,284.75c1.749,0,3.177,1.417,3.177,3.172    c0,1.767-1.429,3.184-3.177,3.184s-3.172-1.417-3.172-3.184C37.313,286.179,38.737,284.75,40.485,284.75z M34.67,273.259    c1.748,0,3.189,1.418,3.189,3.172c-0.011,1.755-1.429,3.172-3.178,3.172s-3.178-1.417-3.178-3.184    C31.493,274.677,32.933,273.236,34.67,273.259z M39.771,315.61c-0.012,1.755-1.424,3.172-3.172,3.172    c-1.749,0-3.189-1.417-3.178-3.172c-0.012-1.755,1.417-3.161,3.178-3.161C38.347,312.449,39.759,313.855,39.771,315.61z     M31.504,290.432c1.737,0,3.167,1.417,3.178,3.184c-0.011,1.731-1.429,3.16-3.178,3.16s-3.189-1.417-3.177-3.16    C28.327,291.849,29.755,290.432,31.504,290.432z M29.448,303.63c0,1.743-1.418,3.184-3.189,3.184c-1.737,0-3.166-1.44-3.178-3.184    c0-1.742,1.429-3.184,3.189-3.184C28.03,300.447,29.448,301.888,29.448,303.63z M26.27,314.296c0,1.743-1.418,3.184-3.189,3.184    c-1.737,0-3.178-1.417-3.178-3.184c0-1.754,1.429-3.172,3.178-3.172C24.852,311.125,26.258,312.542,26.27,314.296z     M22.476,282.798c1.737,0,3.172,1.418,3.172,3.172c0.018,1.743-1.411,3.184-3.172,3.184c-1.748-0.012-3.189-1.429-3.178-3.184    C19.287,284.216,20.728,282.798,22.476,282.798z M13.646,296.451c1.749,0,3.178,1.418,3.189,3.16    c-0.012,1.742-1.429,3.184-3.189,3.184c-1.737,0-3.178-1.418-3.178-3.184C10.48,297.869,11.909,296.451,13.646,296.451z     M6.925,315.076c0-1.755,1.429-3.172,3.177-3.172c1.761-0.023,3.189,1.417,3.178,3.16c0,1.742-1.417,3.184-3.178,3.184    C8.354,318.248,6.925,316.806,6.925,315.076z M13.826,335.14c-1.749,0-3.189-1.417-3.178-3.172c0-1.754,1.417-3.172,3.178-3.172    c1.737,0,3.166,1.418,3.166,3.172C17.004,333.723,15.575,335.14,13.826,335.14z M22.227,346.388c-1.749,0-3.178-1.418-3.178-3.172    c0-1.732,1.417-3.195,3.178-3.172c1.76,0,3.172,1.405,3.172,3.172C25.416,344.97,23.987,346.4,22.227,346.388z M24.306,327.658    c-1.737,0-3.178-1.417-3.178-3.184c0-1.742,1.429-3.183,3.178-3.16c1.749-0.022,3.178,1.418,3.178,3.172    C27.496,326.218,26.043,327.658,24.306,327.658z M28.338,335.14c0-1.742,1.417-3.172,3.178-3.172    c1.737-0.012,3.166,1.418,3.166,3.172c0,1.767-1.417,3.172-3.178,3.184C29.755,338.324,28.327,336.907,28.338,335.14z     M34.67,355.683c-1.737-0.012-3.167-1.418-3.167-3.184c-0.011-1.731,1.417-3.172,3.167-3.172c1.748,0.012,3.178,1.417,3.178,3.172    C37.859,354.265,36.43,355.695,34.67,355.683z M39.759,344.366c-1.737,0-3.172-1.417-3.172-3.172    c0.012-1.755,1.423-3.172,3.172-3.172c1.766,0,3.189,1.406,3.189,3.172C42.937,342.972,41.525,344.366,39.759,344.366z     M41.368,328.808c-1.737,0-3.189-1.417-3.177-3.172c-0.012-1.754,1.429-3.184,3.177-3.184s3.178,1.418,3.178,3.184    C44.546,327.391,43.105,328.808,41.368,328.808z M41.368,308.603c-1.737,0-3.177-1.417-3.177-3.184    c-0.012-1.742,1.429-3.172,3.177-3.172s3.178,1.418,3.178,3.172C44.546,307.186,43.105,308.603,41.368,308.603z M78.345,302.783    c1.749,0,3.178,1.418,3.178,3.172c0,1.742-1.417,3.172-3.189,3.172c-1.737,0-3.166-1.418-3.178-3.172    C75.167,304.189,76.596,302.783,78.345,302.783z M67.65,273.771c1.749-0.023,3.189,1.395,3.189,3.16s-1.43,3.184-3.189,3.184    c-1.737,0-3.166-1.418-3.178-3.184C64.484,275.166,65.901,273.748,67.65,273.771z M62.416,285.97c1.749,0,3.178,1.418,3.189,3.184    c-0.012,1.743-1.429,3.172-3.189,3.172s-3.178-1.406-3.178-3.172S60.667,285.97,62.416,285.97z M66.308,311.904    c1.736,0,3.172,1.395,3.172,3.172c0,1.73-1.424,3.172-3.172,3.172c-1.767,0-3.178-1.418-3.178-3.172    C63.13,313.321,64.542,311.88,66.308,311.904z M61.521,301.714c1.749,0,3.189,1.405,3.189,3.172c0,1.754-1.43,3.184-3.189,3.184    c-1.737,0-3.166-1.418-3.178-3.184C58.355,303.131,59.784,301.714,61.521,301.714z M51.552,24.73c2.997,0,5.414,2.411,5.414,5.408    c0,2.992-2.44,13.176-5.414,13.176c-2.998,0-5.415-10.172-5.415-13.176C46.138,27.141,48.554,24.73,51.552,24.73z M51.418,289.015    c-1.749,0-3.172-1.418-3.172-3.16c0-1.767,1.412-3.184,3.172-3.184c1.766,0,3.178,1.417,3.178,3.172    C54.596,287.597,53.185,289.015,51.418,289.015z M53.957,301.075c0,1.743-1.417,3.172-3.178,3.172s-3.177-1.405-3.189-3.16    c0.012-1.767,1.429-3.172,3.189-3.195C52.54,297.915,53.957,299.32,53.957,301.075z M47.613,272.865    c-0.011-1.743,1.417-3.16,3.178-3.184c1.737,0.023,3.166,1.44,3.178,3.195c0,1.754-1.429,3.172-3.178,3.172    C49.031,276.048,47.602,274.63,47.613,272.865z M50.791,358.867c-1.749-0.023-3.178-1.418-3.178-3.184    c-0.011-1.743,1.417-3.184,3.178-3.184c1.737,0.023,3.178,1.417,3.178,3.184C53.969,357.449,52.528,358.867,50.791,358.867z     M50.791,346.388c-1.76,0-3.178-1.418-3.189-3.16c0.011-1.767,1.429-3.184,3.189-3.184c1.749,0,3.178,1.405,3.178,3.172    C53.969,344.97,52.54,346.388,50.791,346.388z M52.801,331.98c-1.749,0-3.178-1.417-3.178-3.172c0-1.766,1.417-3.172,3.178-3.172    c1.76,0,3.178,1.406,3.178,3.172C55.979,330.563,54.549,331.968,52.801,331.98z M51.418,319.607c-2.521,0-4.555-2.033-4.555-4.543    c0-2.521,2.033-4.555,4.555-4.543c2.516,0,4.549,2.033,4.549,4.555C55.967,317.585,53.934,319.619,51.418,319.607z     M61.533,321.918c1.737,0,3.178,1.395,3.178,3.172c0,1.755-1.43,3.173-3.178,3.173c-1.749,0-3.178-1.395-3.189-3.173    C58.355,323.335,59.784,321.918,61.533,321.918z M58.355,341.194c0-1.755,1.429-3.172,3.178-3.172    c1.748,0,3.178,1.406,3.178,3.172c0,1.755-1.43,3.172-3.178,3.172C59.784,344.366,58.355,342.937,58.355,341.194z M66.308,356.763    c-1.767,0-3.201-1.406-3.178-3.184c-0.023-1.742,1.399-3.172,3.178-3.172c1.736,0,3.172,1.418,3.172,3.184    C69.48,355.333,68.056,356.763,66.308,356.763z M70.816,338.312c-1.737,0.012-3.178-1.405-3.178-3.172    c0.012-1.742,1.429-3.172,3.189-3.172c1.748-0.012,3.178,1.418,3.178,3.172C74.005,336.907,72.587,338.312,70.816,338.312z     M70.828,299.007c-1.749,0-3.178-1.406-3.189-3.161c0.012-1.755,1.429-3.183,3.189-3.183c1.76,0,3.178,1.417,3.178,3.172    C74.005,297.601,72.576,299.007,70.828,299.007z M75.155,327.147c0.012-1.755,1.429-3.184,3.178-3.184    c1.76,0,3.189,1.417,3.178,3.184c0.012,1.743-1.406,3.172-3.178,3.172C76.596,330.307,75.167,328.878,75.155,327.147z     M80.117,347.527c-1.749,0-3.189-1.395-3.178-3.172c-0.012-1.755,1.417-3.172,3.178-3.172c1.76,0,3.166,1.417,3.178,3.183    C83.294,346.109,81.876,347.527,80.117,347.527z M80.117,319.619c-1.749-0.012-3.189-1.418-3.178-3.172    c0-1.767,1.417-3.172,3.178-3.172c1.749-0.023,3.178,1.394,3.178,3.16C83.294,318.201,81.876,319.607,80.117,319.619z     M80.913,289.142c-1.749,0-3.184-1.417-3.172-3.172c-0.012-1.754,1.411-3.184,3.172-3.184c1.737,0,3.178,1.418,3.178,3.184    C84.09,287.725,82.649,289.142,80.913,289.142z M90.219,332.783c-1.737,0-3.166-1.418-3.178-3.172    c0.012-1.755,1.429-3.184,3.178-3.184c1.76,0,3.189,1.417,3.178,3.184C93.409,331.365,91.979,332.783,90.219,332.783z     M95.668,313.693c0,1.742-1.43,3.184-3.178,3.184c-1.749-0.023-3.189-1.43-3.178-3.184c0-1.743,1.417-3.184,3.178-3.172    C94.239,310.521,95.668,311.938,95.668,313.693z M92.491,299.007c-0.023,1.754-1.43,3.183-3.189,3.183    c-1.749,0.012-3.178-1.417-3.178-3.183c0-1.755,1.417-3.161,3.178-3.172C91.061,295.846,92.467,297.263,92.491,299.007z" fill="#9aa7ba"/>
		<path d="M155.905,257.098v-95.43h7.244v-7.186c0,0-8.15-17.962-0.569-45.481c0-5.821,0-79.669,0-79.669h-0.023    c0-0.07,0.035-0.128,0.035-0.204c-0.012-5.46-4.45-9.899-9.899-9.899c-5.473,0-9.911,4.438-9.899,9.899c0,0.076,0,0.134,0,0.204    h-0.012c0,0,0.012,72.733,0.012,79.478c5.711,33.322-1.272,45.685-1.272,45.685v7.186h7.245v95.174    c0,0-29.494,23.528-29.541,30.162c-0.035,6.646-0.215,32.451,0,35.298c0.191,2.881-1.081,42.791,16.725,42.791    c5.106,0,14.256,0,16.063-0.012c0.191,0.012,0.313,0.023,0.313,0.023c1.76-0.012,10.765-0.012,16.057,0    c16.812,0,16.552-39.922,16.731-42.803c0.203-2.847,0.035-28.652,0-35.298C185.103,280.789,159.165,259.736,155.905,257.098z     M131.994,355.648h-3.962l-0.029-66.656h3.991V355.648z M143.438,357.146l-3.973-0.012V300.61l3.973-0.011V357.146z     M147.575,30.371c0-3.073,2.486-5.56,5.548-5.548c3.079,0,5.577,2.475,5.554,5.548c0.023,3.067-2.475,13.513-5.542,13.513    C150.061,43.896,147.575,33.438,147.575,30.371z M150.352,357.134v-48.74h3.973l0.023,48.752L150.352,357.134z M164.66,357.146    h-3.997v-56.547l3.997,0.011V357.146z M174.943,354.916h-3.997v-66.668l3.997,0.012V354.916z" fill="#9aa7ba"/>
		<path d="M255.75,187.154h3.765v-8.447c0,0-9.609-21.105-0.674-53.469c0-6.826,0-93.635,0-93.635l-0.023-0.012    c0-0.07,0.023-0.14,0.023-0.221c0-6.414-5.205-11.642-11.643-11.642c-6.413,0-11.642,5.217-11.642,11.642    c0,0.081,0.023,0.139,0.023,0.232h-0.023c0,0,0,85.496,0,93.408c6.75,39.167-1.499,53.707-1.499,53.707v8.447h4.659    c-0.731,14.152-8.528,36.877-16.87,60.975c-9.992,28.931-20.339,58.871-18.846,76.428c1.627,18.984,10.166,28.768,17.057,33.647    c5.891,4.183,12.92,6.39,19.763,6.39c2.545,0,5.101-0.301,7.553-0.952l3.462-0.895c1.243,0.151,2.463,0.221,3.707,0.244    c6.854-0.023,13.849-2.231,19.751-6.401c6.878-4.869,15.43-14.664,17.057-33.648c1.511-17.556-8.842-47.474-18.869-76.428    C264.464,223.299,256.958,201.398,255.75,187.154z M247.71,26.299c3.637,0,6.553,2.928,6.553,6.518c0,3.631-2.928,15.9-6.529,15.9    c-3.603,0-6.53-12.27-6.53-15.889C241.204,29.238,244.131,26.299,247.71,26.299z M222.777,354.381    c-6.077-4.299-13.629-13.036-15.093-30.231c-1.418-16.568,8.749-46.01,18.602-74.5c2.021-5.832,4.02-11.618,5.901-17.219    c-8.062,36.506-17.799,81.587-18.264,87.965c-0.721,20.984,15.162,33.707,24.84,39.469    C233.21,359.632,227.505,357.728,222.777,354.381z M218.593,320.617c0.372-4.949,7.076-36.552,13.943-67.945    c-4.056,31.324-7.901,62.625-7.901,69.34c0,8.993,8.575,24.365,15.918,33.509C231.746,350.164,217.966,338.847,218.593,320.617z     M229.306,322.011c0-7.645,5.321-49.564,10.062-85.443c-2.428,54.143-2.161,63.926-1.858,74.174    c0.116,3.299,0.209,6.681,0.209,11.653c0,13.141,3.346,23.04,6.17,29.663C237.718,344.192,229.306,330.772,229.306,322.011z     M246.862,346.921c-2.266-6.064-4.484-14.244-4.484-24.526c0-5.054-0.104-8.435-0.198-11.793    c-0.359-12.548-0.696-24.446,4.066-119.759c0.35-1.609,0.64-2.806,0.814-3.689h0.604c0.151,0.627,0.279,1.284,0.465,2.056    c4.74,95.343,4.415,107.241,4.066,119.766c-0.116,3.369-0.209,6.762-0.209,11.805C252.009,332.015,249.36,340.73,246.862,346.921z     M250.499,350.455c2.823-6.611,6.181-16.533,6.181-29.651c0.012-4.996,0.105-8.354,0.198-11.677    c0.267-10.236,0.593-20.02-1.871-74.162c4.753,35.902,10.085,77.822,10.085,85.455    C265.068,329.169,256.633,342.577,250.499,350.455z M253.775,353.917c2.58-3.229,4.811-6.576,5.589-7.737    c3.869-5.914,10.376-17.15,10.364-25.783c0.012-6.727-3.823-38.027-7.89-69.34c6.844,31.371,13.571,62.95,13.942,67.865    C276.385,337.185,262.559,348.548,253.775,353.917z M286.703,322.546c-1.464,17.195-9.027,25.909-15.093,30.22    c-4.729,3.347-10.434,5.24-15.999,5.484c9.655-5.774,25.55-18.532,24.841-39.597c-0.477-6.285-10.225-51.331-18.276-87.826    c1.871,5.578,3.869,11.363,5.902,17.208C277.918,276.513,288.109,305.978,286.703,322.546z" fill="#9aa7ba"/>
		<path d="M380.558,337.07l0.07-0.047c-0.047-0.07-0.07-0.15-0.117-0.221c-0.174-0.593-0.511-1.197-0.883-1.731    c-18.055-34.449-32.613-92.717-33.647-116.825v-27.014h8.377v-8.859c0,0-10.073-22.128-0.709-56.089c0-7.18,0-98.212,0-98.212    h-0.022c0-0.082,0.022-0.151,0.022-0.238c0-6.745-5.46-12.217-12.199-12.206c-6.728-0.011-12.2,5.461-12.2,12.194    c0,0.099,0.023,0.157,0.023,0.25h-0.023c0,0,0,89.661,0,97.969c7.064,41.078-1.557,56.321-1.557,56.321l-0.012,8.859h7.471v24.342    c0,22.133-14.918,83.281-33.555,119.067c-0.883,1.15-1.394,2.323-1.394,3.556c0,7.563,18.032,13.687,40.282,13.687    c22.227,0,40.258-6.135,40.258-13.71C380.72,337.801,380.663,337.429,380.558,337.07z M341.996,22.517    c3.776,0,6.844,3.056,6.844,6.837c0,3.788-3.067,16.661-6.855,16.661c-3.775,0-6.832-12.874-6.832-16.661    C335.14,25.584,338.208,22.517,341.996,22.517z M340.474,324.486c-12.386,0-23.447,1.906-30.836,4.893    c15.197-32.707,27.304-80.123,29.883-105.242h1.975c2.58,25.119,14.687,72.582,29.896,105.3    C364.013,326.416,352.894,324.498,340.474,324.486z" fill="#9aa7ba"/>
	</g>
</g>
<g>
</g>
<g>
</g>
<g>
</g>
<g>
</g>
<g>
</g>
<g>
</g>
<g>
</g>
<g>
</g>
<g>
</g>
<g>
</g>
<g>
</g>
<g>
</g>
<g>
</g>
<g>
</g>
<g>
</g>
</svg>
