<?xml version="1.0" encoding="utf-8"?>
<!-- Generator: Adobe Illustrator 17.0.0, SVG Export Plug-In . SVG Version: 6.00 Build 0)  -->
<!DOCTYPE svg PUBLIC "-//W3C//DTD SVG 1.1//EN" "http://www.w3.org/Graphics/SVG/1.1/DTD/svg11.dtd">
<svg version="1.1" id="Layer_1" xmlns="http://www.w3.org/2000/svg" xmlns:xlink="http://www.w3.org/1999/xlink" x="0px" y="0px"
	 width="500px" height="500px" viewBox="0 0 500 500" enable-background="new 0 0 500 500" xml:space="preserve">
<g>
	<path fill="#9EA8BB" d="M250.267,254.619c0-42.693-0.002-83.312,0.001-123.932c0.002-29.774,8.647-38.385,38.54-38.386
		c54.046-0.002,108.093-0.029,162.139,0.012c24.021,0.018,34.303,10.328,34.308,34.37c0.022,106.526-0.155,213.053,0.267,319.577
		c0.042,10.515-2.806,12.898-13.04,12.874c-145.689-0.345-291.38-0.373-437.069,0.036c-11.179,0.031-13.414-3.419-13.324-13.786
		c0.48-55.217,0.208-110.441,0.234-165.662c0.012-24.672,10.162-34.655,35.199-34.665c52.088-0.019,104.177,0.1,156.264-0.083
		C226.304,244.932,238.747,244.278,250.267,254.619z"/>
	<path fill="#9EA8BB" d="M139.764,172.193c-24.673,0.001-49.347-0.134-74.018,0.081c-7.693,0.067-15.179-1.22-16.712-9.447
		c-1.628-8.736-4.074-18.38,7.417-24.431c11.729-6.176,22.222-14.673,33.853-21.07c7.665-4.216,9.956-9.521,9.735-17.908
		c-0.537-20.351-0.233-40.725-0.112-61.09c0.019-3.236-1.435-8.493,3.383-8.579c4.93-0.087,3.514,5.194,3.535,8.408
		c0.129,19.189,0.386,38.387-0.09,57.566c-0.194,7.816,1.548,11.246,10.228,10.863c15.244-0.672,30.55-0.537,45.808-0.039
		c7.53,0.246,10.304-1.891,10.092-9.794c-0.515-19.176-0.274-38.377-0.065-57.564c0.037-3.439-2.029-9.549,3.618-9.317
		c5.233,0.215,3.202,6.241,3.234,9.775c0.187,20.755,0.333,41.517-0.047,62.266c-0.123,6.697,2.046,10.787,7.838,14.208
		c12.458,7.359,24.244,15.87,36.803,23.037c10.68,6.095,7.741,15.511,6.297,23.809c-1.323,7.6-8.228,9.353-15.603,9.297
		C189.893,172.074,164.828,172.192,139.764,172.193z"/>
	<path fill="#FFFFFF" d="M367.365,451.851c-33.258,0-66.52-0.265-99.773,0.186c-8.354,0.113-10.542-2.519-10.45-10.629
		c0.402-35.602,0.388-71.212,0.007-106.814c-0.084-7.869,2.56-9.815,10.069-9.787c66.907,0.25,133.816,0.287,200.723-0.034
		c8.344-0.04,10.54,2.513,10.448,10.623c-0.401,35.602-0.388,71.212-0.007,106.814c0.084,7.87-2.554,9.87-10.07,9.792
		C434.666,451.654,401.014,451.851,367.365,451.851z"/>
	<path fill="#FFFFFF" d="M370.116,208.537c0-32.464,0.271-64.932-0.179-97.39c-0.122-8.776,1.653-12.361,11.447-12.045
		c23.444,0.757,46.929,0.161,70.396,0.274c16.473,0.079,26.38,9.808,26.403,26.117c0.085,60.626-0.1,121.252,0.195,181.876
		c0.039,7.972-1.873,10.865-10.346,10.72c-28.935-0.496-57.89-0.503-86.825,0.003c-8.585,0.15-11.455-1.973-11.305-10.993
		C370.445,274.253,370.116,241.393,370.116,208.537z"/>
	<path fill="#FFFFFF" d="M363.064,208.726c0.001,32.855-0.219,65.713,0.16,98.564c0.091,7.868-1.691,10.955-10.267,10.802
		c-28.544-0.511-57.105-0.407-85.654-0.048c-7.399,0.093-10.194-1.714-10.155-9.695c0.303-61.407,0.087-122.816,0.229-184.224
		c0.033-14.275,10.121-24.547,24.212-24.7c24.248-0.264,48.505,0.206,72.747-0.239c7.781-0.143,8.881,3.233,8.834,9.8
		C362.938,142.232,363.064,175.48,363.064,208.726z"/>
	<path fill="#FFFFFF" d="M139.759,451.851c-33.261,0-66.524-0.217-99.781,0.16c-7.866,0.089-10.885-1.69-10.807-10.265
		c0.408-44.996,0.334-89.999,0.048-134.998c-0.047-7.389,1.699-10.197,9.69-10.163c67.303,0.291,134.609,0.297,201.912-0.005
		c8.139-0.037,9.619,3.022,9.576,10.274c-0.268,44.999-0.359,90.001,0.06,134.998c0.081,8.716-3.2,10.231-10.917,10.149
		C206.283,451.65,173.02,451.852,139.759,451.851z"/>
	<path fill="#FFFFFF" d="M139.814,289.699c-33.225,0-66.456-0.327-99.672,0.216c-9.016,0.147-11.319-2.673-10.969-11.292
		c0.681-16.797,10.012-26.484,27.374-26.502c55.505-0.059,111.011-0.06,166.517,0c17.771,0.019,26.955,10.029,27.416,27.672
		c0.231,8.846-3.377,10.129-10.991,10.052C206.266,289.506,173.039,289.699,139.814,289.699z"/>
	<path fill="#FFFFFF" d="M140.094,143.999c24.607,0,49.216,0.132,73.822-0.088c6.617-0.059,11.144,0.278,10.726,9.088
		c-0.38,8.014-2.206,12.341-11.297,12.262c-33.979-0.294-67.963-0.114-101.944-0.114c-14.843,0-29.698-0.379-44.523,0.132
		c-9.679,0.333-11.639-4.278-11.903-12.848c-0.292-9.449,5.31-8.479,11.297-8.462C90.879,144.038,115.487,143.998,140.094,143.999z"
		/>
	<path fill="#FFFFFF" d="M204.123,136.326c-43.025,0-85.615,0-128.699,0C101.412,103.636,178.947,104.027,204.123,136.326z"/>
	<path fill="#9FA8BC" d="M368.403,348.455c13.633,0,27.266-0.063,40.898,0.051c2.874,0.024,7.148-0.86,6.972,3.789
		c-0.136,3.593-3.853,3.169-6.496,3.173c-28.044,0.04-56.089,0.036-84.133,0.007c-2.684-0.003-6.401,0.249-6.428-3.272
		c-0.034-4.482,4.198-3.686,7.121-3.706C340.358,348.404,354.381,348.455,368.403,348.455z"/>
	<path fill="#9FA8BC" d="M393.6,208.092c-0.002,9.329,0.053,18.659-0.037,27.987c-0.026,2.647,0.128,6.054-3.798,5.831
		c-2.934-0.166-3.147-3.005-3.15-5.373c-0.027-19.436-0.023-38.871,0.001-58.307c0.003-2.402,0.366-5.226,3.258-5.278
		c3.803-0.069,3.679,3.313,3.699,5.986C393.646,188.656,393.602,198.374,393.6,208.092z"/>
	<path fill="#9FA8BC" d="M346.599,207.895c0.005,9.33,0.045,18.661-0.02,27.991c-0.018,2.688,0.094,6.062-3.637,6.084
		c-2.867,0.017-3.321-2.802-3.325-5.223c-0.026-19.438-0.031-38.875-0.008-58.313c0.003-2.36,0.157-5.203,3.08-5.43
		c3.937-0.305,3.845,3.078,3.869,5.734C346.647,188.456,346.594,198.176,346.599,207.895z"/>
	<path fill="#9EA8BB" d="M139.764,437.751c-23.838,0-47.681-0.267-71.512,0.153c-7.743,0.136-11.104-1.471-10.885-10.164
		c0.578-23.042,0.11-46.109,0.232-69.165c0.068-12.851,4.107-17.094,16.631-17.127c43.769-0.113,87.538-0.112,131.306,0.001
		c12.139,0.031,16.381,4.174,16.472,16.051c0.176,23.056-0.315,46.122,0.248,69.165c0.21,8.579-1.952,11.542-10.982,11.302
		C187.452,437.332,163.602,437.751,139.764,437.751z"/>
	<path fill="#9EA8BB" d="M138.567,322.6c-23.812,0-47.625,0.053-71.436-0.063c-3.224-0.016-8.433,1.483-8.656-3.266
		c-0.239-5.07,5.048-3.648,8.207-3.655c48.795-0.095,97.591-0.098,146.386,0.009c3.104,0.007,8.434-1.499,8.03,3.768
		c-0.363,4.734-5.543,3.122-8.752,3.138C187.753,322.657,163.16,322.6,138.567,322.6z"/>
	<path fill="#A2ABBE" d="M69.245,282.659c-7.09-1.014-11.603-4.814-11.431-12.119c0.157-6.667,4.357-10.913,10.999-11.127
		c7.24-0.233,11.809,4.056,11.98,11.28C80.966,277.995,76.316,281.731,69.245,282.659z"/>
	<path fill="#A2ABBE" d="M222.063,270.816c-0.908,7.072-4.639,11.725-11.937,11.571c-7.228-0.153-11.514-4.725-11.299-11.961
		c0.198-6.645,4.441-10.851,11.102-11.026C217.237,259.207,221.035,263.727,222.063,270.816z"/>
	<path fill="#A7B0C2" d="M181.7,150.972c3.487,0.137,6.91,0.03,6.853,3.659c-0.056,3.606-3.506,3.584-6.213,3.464
		c-2.893-0.128-7.042,0.672-6.523-4.114C176.222,150.26,180.004,151.545,181.7,150.972z"/>
	<path fill="#A7B0C2" d="M205.394,158.158c-2.924-0.141-6.495-0.077-6.197-3.69c0.355-4.295,4.459-3.362,7.409-3.416
		c2.326-0.043,5.261,0.17,5.358,3.099C212.123,158.927,208.038,157.759,205.394,158.158z"/>
	<path fill="#EEF1F7" d="M139.838,430.7c-21.509,0.001-43.025-0.288-64.525,0.153c-7.806,0.16-11.147-1.612-10.888-10.255
		c0.595-19.927,0.506-39.892,0.044-59.826c-0.207-8.919,2.463-12.573,11.959-12.487c42.233,0.382,84.473,0.309,126.708,0.043
		c8.264-0.052,12.209,2.171,12.016,11.219c-0.441,20.718-0.428,41.458,0.012,62.176c0.16,7.511-2.785,9.2-9.625,9.098
		C183.642,430.493,161.738,430.699,139.838,430.7z"/>
	<path fill="#F9F9FB" d="M73.533,270.798c-0.267,2.555-1.637,4.155-4.31,4.207c-2.186,0.042-3.614-1.461-3.942-3.381
		c-0.442-2.589,1.071-4.465,3.615-4.792C71.545,266.49,73.038,268.157,73.533,270.798z"/>
	<path fill="#F9F9FB" d="M214.489,270.956c-0.431,2.647-1.922,4.293-4.572,3.994c-2.566-0.289-4.064-2.156-3.669-4.744
		c0.296-1.942,1.739-3.44,3.895-3.443C212.825,266.76,214.185,268.393,214.489,270.956z"/>
	<path fill="#FFFFFF" d="M198.719,380.853c-1.097,1.599-1.961,3.361-3.268,4.686c-9.838,9.966-19.74,19.869-29.685,29.728
		c-1.554,1.541-3.335,4.125-5.774,2.226c-2.296-1.787-1.116-4.402,0.573-6.119c10.64-10.812,21.35-21.554,32.153-32.203
		c0.944-0.931,2.714-1.328,4.108-1.345C197.371,377.819,197.938,379.543,198.719,380.853z"/>
	<path fill="#FDFEFE" d="M115.986,367.238c-0.77,1.24-1.358,2.709-2.381,3.751c-7.125,7.251-14.33,14.424-21.534,21.597
		c-2.138,2.128-4.48,3.414-6.982,0.561c-2.053-2.341-0.759-4.371,0.98-6.126c7.157-7.22,14.35-14.404,21.554-21.578
		C110.95,362.129,113.637,362.573,115.986,367.238z"/>
	<path fill="#FFFFFF" d="M125.286,381.019c-3.23-0.025-4.789-1.957-2.617-4.307c5.8-6.272,11.971-12.232,18.348-17.92
		c1.79-1.597,4.648-1.166,4.982,2.219C146.218,363.238,127.746,380.844,125.286,381.019z"/>
	<path fill="#FCFCFE" d="M77.374,398.13c2.218,0.249,3.494,1.438,3.28,3.7c-0.235,2.488-1.564,4.445-4.178,4.502
		c-2.612,0.057-4.316-1.65-3.964-4.326C72.85,399.437,74.9,398.351,77.374,398.13z"/>
</g>
</svg>
