<?xml version="1.0" encoding="utf-8"?>
<!-- Generator: Adobe Illustrator 17.0.0, SVG Export Plug-In . SVG Version: 6.00 Build 0)  -->
<!DOCTYPE svg PUBLIC "-//W3C//DTD SVG 1.1//EN" "http://www.w3.org/Graphics/SVG/1.1/DTD/svg11.dtd">
<svg version="1.1" id="Layer_1" xmlns="http://www.w3.org/2000/svg" xmlns:xlink="http://www.w3.org/1999/xlink" x="0px" y="0px"
	 width="500px" height="500px" viewBox="0 0 500 500" enable-background="new 0 0 500 500" xml:space="preserve">
<path fill="#9EA8BB" d="M342.619,100.781c3.645,0.666,3.584,2.411,3.721,3.841c1.563,16.275,1.548,16.277,17.451,16.277
	c36.822,0.001,73.648,0.277,110.464-0.202c8.784-0.114,11.197,2.323,11.172,11.144c-0.301,105.765-0.274,211.532-0.036,317.297
	c0.018,7.997-1.911,10.753-10.367,10.716c-71.684-0.319-143.371-0.276-215.056-0.042c-7.416,0.024-10.17-1.741-10.152-9.715
	c0.242-106.549,0.243-213.099-0.001-319.647c-0.018-8.009,2.784-9.828,10.181-9.695c22.321,0.403,44.678-0.47,66.973,0.4
	c11.357,0.443,17.208-1.973,14.855-14.464C341.491,104.929,342.296,102.953,342.619,100.781z"/>
<path fill="#9EA8BB" d="M144.418,290.291c17.732,0,33.666,0.215,49.588-0.107c6.284-0.127,9.486,1.365,8.995,8.41
	c-0.882,12.66,2.774,26.134-10.079,38.749c12.178,0,21.657,0.334,31.1-0.112c6.821-0.322,9.713,1.455,9.635,9.023
	c-0.358,34.847-0.36,69.702,0.001,104.549c0.079,7.62-2.932,9.003-9.674,8.983c-64.219-0.192-128.439-0.246-192.657,0.052
	c-7.995,0.037-9.772-2.771-9.7-10.17c0.328-34.064,0.42-68.137-0.048-102.199c-0.118-8.569,2.89-10.787,10.81-10.263
	c8.944,0.591,17.958,0.136,28.836,0.136c-10.759-12.085-8.506-25.581-8.992-38.685c-0.258-6.956,2.61-8.601,8.969-8.477
	c16.786,0.328,33.583,0.111,50.237,0.111c2.203-5.4-8.569-8.639-2.898-12.053c7.112-4.282,8.811,6.827,15.553,8.363
	c2.703-7.954,0.477-16.388,1.186-24.563c0.236-2.725-0.074-6.299,3.529-6.3c3.604-0.002,3.484,3.569,3.499,6.3
	c0.046,8.604,0.017,17.209,0.017,26.533c5.159-0.695,6.982-5.019,10.165-7.351c2.313-1.694,4.152-6.245,7.467-3.614
	c3.445,2.734-0.12,5.448-2.008,7.815C147.071,286.521,146.29,287.697,144.418,290.291z"/>
<path fill="#9EA8BB" d="M126.452,243.229c-31.334,0-62.671-0.22-94,0.156c-7.799,0.094-10.996-1.559-10.875-10.218
	c0.476-34.069,0.478-68.153-0.001-102.222c-0.122-8.683,3.126-10.226,10.892-10.193c63.451,0.264,126.903,0.266,190.354-0.001
	c7.792-0.033,10.995,1.554,10.874,10.213c-0.476,34.069-0.478,68.153,0.001,102.222c0.122,8.683-3.12,10.287-10.893,10.199
	C190.689,243.016,158.569,243.229,126.452,243.229z"/>
<path fill="#9FA8BC" d="M367.584,92.663c-14.086-0.002-28.177-0.223-42.255,0.101c-6.152,0.141-6.558-2.394-4.455-6.945
	c3.848-8.328,8.96-16.539,16.857-20.571c10.326-5.272,12.032-12.673,11.274-22.791c-0.309-4.116-2.716-11.997,2.898-12.009
	c7.293-0.015,3.495,7.978,3.757,12.343c0.635,10.607,12.09,17.31,21.321,11.941c3-1.744,2.25-4.688,2.348-7.298
	c0.176-4.687,0.067-9.386,0.294-14.07c0.103-2.116,1.314-3.75,3.712-3.465c1.705,0.203,2.591,1.542,2.833,3.241
	c0.055,0.386,0.245,0.805,0.156,1.153c-4.634,18.132,5.785,28.704,18.925,38.009c1.543,1.093,2.824,2.787,3.759,4.464
	c2.605,4.669,8.331,9.415,5.754,14.476c-1.901,3.731-8.605,1.239-13.138,1.339C390.282,92.833,378.931,92.664,367.584,92.663z"/>
<path fill="#A3ACBF" d="M367.415,100.944c3.39,5.398,3.275,10.834,0.468,18.631C364.002,112.071,365.007,106.525,367.415,100.944z"
	/>
<path fill="#A3ACBF" d="M414.803,117.233c-3.509-5.398-2.542-10.809-0.54-16.262C418.157,106.19,417.329,111.689,414.803,117.233z"
	/>
<path fill="#A3ACBF" d="M320.709,101.032c2.642,5.432,2.886,10.831,0.517,17.959C316.818,112.023,317.797,106.538,320.709,101.032z"
	/>
<path fill="#A9B1C3" d="M393.523,113.17c-0.321,2.35-0.278,4.165-2.345,4.237c-2.132,0.074-2.253-1.784-2.297-3.254
	c-0.056-1.888-0.04-4.29,2.719-3.842C392.52,110.46,393.127,112.537,393.523,113.17z"/>
<path fill="#FFFFFF" d="M322.977,128.302c14.067,0,28.135,0,42.202,0c4.495,4.96,1.396,11.035,2.425,15.789
	c1.029-4.754-2.069-10.829,2.425-15.789c6.226,0.001,12.451,0.002,18.677,0.003c1.616,3.877,3.232,3.877,4.848,0
	c6.226-0.001,12.451-0.002,18.677-0.003c4.495,4.96,1.396,11.035,2.425,15.789c1.029-4.754-2.069-10.829,2.425-15.789
	c17.233-0.116,34.473,0.02,51.696-0.47c6.928-0.197,9.561,1.656,9.545,9.119c-0.219,102.255-0.221,204.511,0.003,306.766
	c0.017,7.581-2.861,9.035-9.642,9.016c-67.386-0.193-134.774-0.246-202.159,0.053c-8.092,0.036-9.64-2.934-9.626-10.243
	c0.196-101.472,0.191-202.944,0.007-304.415c-0.013-7.182,1.265-10.667,9.528-10.341c17.211,0.678,34.459,0.401,51.693,0.517
	c4.495,4.96,1.396,11.035,2.425,15.789C321.581,139.337,318.483,133.262,322.977,128.302z"/>
<path fill="#EEF1F7" d="M322.977,128.302c-0.727,8.736,1.237,17.66-1.902,28.842c-4.915-10.899-1.884-20.106-2.948-28.843
	C319.743,128.302,321.36,128.302,322.977,128.302z"/>
<path fill="#EEF1F7" d="M370.03,128.302c-0.727,8.736,1.237,17.66-1.902,28.842c-4.915-10.899-1.884-20.106-2.948-28.843
	C366.796,128.302,368.413,128.302,370.03,128.302z"/>
<path fill="#EEF1F7" d="M417.083,128.302c-0.727,8.736,1.237,17.66-1.902,28.842c-4.915-10.899-1.884-20.106-2.948-28.843
	C413.849,128.302,415.466,128.302,417.083,128.302z"/>
<path fill="#EEF1F7" d="M393.555,128.305c-0.682,4.075,1.297,8.549-2.242,13.031c-4.25-3.964-1.734-8.915-2.606-13.032
	C390.323,128.305,391.939,128.305,393.555,128.305z"/>
<path fill="#FFFFFF" d="M125.281,398.998c-0.001,14.874-0.211,29.753,0.1,44.621c0.129,6.178-1.173,9.224-8.309,9.131
	c-26.613-0.347-53.235-0.331-79.849-0.006c-6.894,0.084-8.561-2.544-8.508-8.935c0.251-30.138,0.331-60.282-0.045-90.418
	c-0.093-7.457,2.614-9.21,9.534-9.123c25.83,0.326,51.672,0.419,77.499-0.041c7.975-0.142,9.965,2.71,9.721,10.153
	C124.939,369.238,125.281,384.123,125.281,398.998z"/>
<path fill="#FFFFFF" d="M226.444,398.517c0,14.874-0.271,29.755,0.121,44.618c0.179,6.799-1.441,9.764-9.021,9.639
	c-25.435-0.42-50.886-0.421-76.321,0.001c-7.604,0.126-9.064-2.895-9.001-9.658c0.279-29.745,0.281-59.495-0.002-89.24
	c-0.065-6.789,1.442-9.762,9.022-9.637c25.435,0.42,50.886,0.421,76.321-0.001c7.604-0.126,9.176,2.886,9,9.66
	C226.178,368.763,226.444,383.643,226.444,398.517z"/>
<path fill="#FFFFFF" d="M128.886,297.345c18.764-0.001,37.537,0.321,56.289-0.155c7.763-0.197,11.024,1.467,10.906,10.161
	c-0.283,20.759-8.892,29.97-29.826,29.983c-26.974,0.017-53.952-0.286-80.92,0.105c-17.961,0.26-29.506-14.753-25.741-36.099
	c1.043-5.91,6.029-3.872,9.481-3.904C89.011,297.25,108.949,297.345,128.886,297.345z"/>
<path fill="#EEF1F7" d="M126.395,236.175c-28.966,0-57.935-0.236-86.896,0.155c-7.856,0.106-11.007-1.708-10.862-10.299
	c0.494-29.349,0.4-58.714,0.044-88.067c-0.09-7.46,1.846-10.207,9.777-10.168c59.496,0.294,118.995,0.301,178.491-0.005
	c8.105-0.042,9.717,3.011,9.635,10.306c-0.332,29.353-0.455,58.719,0.056,88.067c0.153,8.766-3.327,10.246-11,10.154
	C185.895,235.965,156.143,236.175,126.395,236.175z"/>
<path fill="#FFFFFF" d="M403.725,85.373c-24.473,0-47.863,0-71.31,0c2.973-12.368,15.625-21.71,31.123-23.171
	C380.875,60.567,396.789,69.419,403.725,85.373z"/>
<path fill="#EEF1F7" d="M320.594,176.576c2.343,9.922,3.451,19.872-0.118,29.727C317.28,196.421,317.978,186.507,320.594,176.576z"
	/>
<path fill="#EEF1F7" d="M367.596,176.666c2.519,9.893,3.381,19.794,0.011,29.636C364.222,196.467,365.112,186.569,367.596,176.666z"
	/>
<path fill="#EEF1F7" d="M320.995,283.976c-4.234-9.784-2.313-19.736-0.801-29.677C323.966,264.096,322.771,274.028,320.995,283.976z
	"/>
<path fill="#EEF1F7" d="M391.811,229.91c-3.393-9.931-3.631-19.831,0-29.693C391.811,210.114,391.811,220.012,391.811,229.91z"/>
<path fill="#EEF1F7" d="M343.889,230.811c3.029,9.842,3.029,19.715,0.372,29.628C340.681,250.679,341.792,240.747,343.889,230.811z"
	/>
<path fill="#EEF1F7" d="M367.613,283.921c-2.519-9.893-3.381-19.794-0.011-29.636C370.988,264.12,370.097,274.018,367.613,283.921z"
	/>
<path fill="#EEF1F7" d="M414.982,283.93c-3.222-9.845-3.238-19.731-0.656-29.644C418.632,264.026,416.331,274.016,414.982,283.93z"
	/>
<path fill="#EEF1F7" d="M390.818,277.856c3.225,9.86,3.23,19.739,0.627,29.638C387.212,297.736,389.397,287.758,390.818,277.856z"/>
<path fill="#EEF1F7" d="M343.945,282.561c2.562,9.916,3.597,19.834,0.149,29.651C340.509,302.346,341.991,292.442,343.945,282.561z"
	/>
<path fill="#EEF1F7" d="M320.893,335.789c-3.294-9.887-3.214-19.802-0.691-29.746C324.542,315.819,322.22,325.85,320.893,335.789z"
	/>
<path fill="#EEF1F7" d="M367.416,306.096c3.029,9.842,3.029,19.715,0.372,29.628C364.207,325.964,365.318,316.031,367.416,306.096z"
	/>
<path fill="#EEF1F7" d="M414.79,335.653c-2.562-9.916-3.597-19.834-0.149-29.651C418.227,315.867,416.744,325.772,414.79,335.653z"
	/>
<path fill="#EEF1F7" d="M390.451,329.488c3.393,9.931,3.631,19.831,0,29.693C390.451,349.284,390.451,339.386,390.451,329.488z"/>
<path fill="#EEF1F7" d="M344.121,334.202c2.343,9.922,3.451,19.872-0.118,29.727C340.806,354.048,341.504,344.134,344.121,334.202z"
	/>
<path fill="#EEF1F7" d="M320.572,357.843c2.454,9.899,3.417,19.798-0.073,29.615C317.261,377.613,317.961,367.728,320.572,357.843z"
	/>
<path fill="#EEF1F7" d="M367.793,387.402c-3.029-9.842-3.029-19.715-0.372-29.628C371.002,367.535,369.891,377.467,367.793,387.402z
	"/>
<path fill="#EEF1F7" d="M414.333,357.81c3.222,9.845,3.238,19.731,0.656,29.644C410.683,377.714,412.984,367.724,414.333,357.81z"/>
<path fill="#EEF1F7" d="M391.319,178.033c-3.033-9.841-3.024-19.717-0.371-29.634C394.526,158.159,393.422,168.093,391.319,178.033z
	"/>
<path fill="#EEF1F7" d="M390.902,381.376c3.338,9.82,2.966,19.694,0.447,29.614C387.608,401.259,388.892,391.318,390.902,381.376z"
	/>
<path fill="#EEF1F7" d="M343.889,153.174c3.029,9.842,3.029,19.715,0.372,29.628C340.681,173.042,341.792,163.11,343.889,153.174z"
	/>
<path fill="#EEF1F7" d="M414.344,176.693c3.225,9.86,3.23,19.739,0.627,29.638C410.738,196.573,412.924,186.595,414.344,176.693z"/>
<path fill="#A7B0C2" d="M279.163,296.86c-4.17-1.193-3.242-4.698-3.309-7.643c-0.054-2.355,0.249-5.278,3.159-5.309
	c4.669-0.051,3.801,3.952,3.894,6.863C282.994,293.484,282.938,296.357,279.163,296.86z"/>
<path fill="#EEF1F8" d="M343.961,204.284c3.297,7.993,2.916,13.193-0.034,18.536C341.451,217.806,340.948,212.619,343.961,204.284z"
	/>
<path fill="#EEF1F8" d="M414.609,228.225c3.228,7.653,3.195,12.888,0.045,20.609C411.522,241.085,411.489,235.849,414.609,228.225z"
	/>
<path fill="#EEF1F8" d="M367.748,246.329c-3.212-5.181-2.977-10.429-0.898-17.282C371.731,235.475,369.95,240.925,367.748,246.329z"
	/>
<path fill="#EEF1F8" d="M391.168,269.866c-2.846-5.274-3.235-10.509-0.048-18.002C394.38,259.322,393.859,264.574,391.168,269.866z"
	/>
<path fill="#EEF1F8" d="M320.468,246.277c-2.732-5.242-3.077-10.438-0.408-17.003C324.416,235.673,323.296,240.974,320.468,246.277z
	"/>
<path fill="#F0F2F8" d="M346.286,141.648c0.018,1.573-0.091,3.331-1.847,3.709c-2.234,0.482-2.295-1.545-2.48-2.995
	c-0.198-1.554,0.067-3.317,1.81-3.696C346.009,138.18,345.913,140.242,346.286,141.648z"/>
<path fill="#F0F2F8" d="M322.709,219.244c0.034,1.567-0.069,3.316-1.796,3.726c-2.212,0.525-2.31-1.479-2.511-2.926
	c-0.215-1.548,0.021-3.307,1.739-3.718C322.345,215.8,322.319,217.84,322.709,219.244z"/>
<path fill="#F0F2F8" d="M391.485,315.098c1.649,0.78,1.958,2.249,1.753,3.79c-0.192,1.448-0.315,3.446-2.518,2.921
	c-1.723-0.41-1.94-2.169-1.744-3.713C389.161,316.638,389.236,314.897,391.485,315.098z"/>
<path fill="#F0F2F8" d="M369.794,165.609c-0.122,1.517-0.118,3.337-2.182,3.317c-2.061-0.019-2.129-1.853-2.126-3.366
	c0.003-1.517,0.116-3.336,2.172-3.319C369.731,162.259,369.679,164.095,369.794,165.609z"/>
<path fill="#F0F2F8" d="M346.264,323.55c-0.389,1.403-0.33,3.469-2.566,2.928c-1.732-0.418-1.954-2.197-1.747-3.745
	c0.195-1.457,0.311-3.479,2.53-2.944C346.205,320.205,346.331,321.962,346.264,323.55z"/>
<path fill="#F0F2F8" d="M367.53,223.193c-1.963-0.284-2.068-1.882-2.058-3.405c0.01-1.51,0.059-3.359,2.145-3.348
	c2.063,0.01,2.137,1.845,2.137,3.357C369.753,221.308,369.737,222.962,367.53,223.193z"/>
<path fill="#F0F2F8" d="M416.866,219.285c0.018,1.573-0.091,3.331-1.847,3.709c-2.234,0.482-2.295-1.545-2.48-2.995
	c-0.199-1.554,0.067-3.316,1.81-3.696C416.588,215.817,416.492,217.879,416.866,219.285z"/>
<path fill="#F0F2F8" d="M322.738,347.077c-0.389,1.403-0.33,3.469-2.566,2.928c-1.732-0.418-1.954-2.197-1.747-3.745
	c0.195-1.457,0.311-3.479,2.53-2.944C322.678,343.731,322.805,345.489,322.738,347.077z"/>
<path fill="#F0F2F8" d="M367.605,343.365c2.057,0.288,2.119,1.909,2.117,3.42c-0.001,1.517-0.116,3.335-2.171,3.318
	c-2.073-0.017-2.118-1.854-2.108-3.367C365.452,345.227,365.503,343.601,367.605,343.365z"/>
<path fill="#F0F2F8" d="M416.843,347.077c-0.389,1.403-0.33,3.469-2.566,2.928c-1.732-0.418-1.954-2.197-1.747-3.745
	c0.195-1.457,0.311-3.479,2.53-2.944C416.784,343.732,416.91,345.489,416.843,347.077z"/>
<path fill="#F0F2F8" d="M346.237,271.386c-0.141,1.505-0.085,3.357-2.172,3.346c-2.063-0.011-2.128-1.845-2.139-3.357
	c-0.011-1.526,0.07-3.361,2.142-3.348C346.105,268.038,346.131,269.852,346.237,271.386z"/>
<path fill="#F0F2F8" d="M415.011,291.572c1.649,0.78,1.958,2.249,1.753,3.79c-0.192,1.448-0.315,3.446-2.518,2.921
	c-1.723-0.41-1.94-2.169-1.744-3.713C412.687,293.112,412.762,291.371,415.011,291.572z"/>
<path fill="#F0F2F8" d="M344.497,199.642c-2.231,0.182-2.344-1.549-2.531-3.011c-0.197-1.541,0.026-3.304,1.752-3.714
	c2.212-0.525,2.311,1.479,2.511,2.926C346.442,197.39,346.142,198.854,344.497,199.642z"/>
<path fill="#F0F2F8" d="M393.288,188.66c0.034,1.567-0.069,3.316-1.796,3.726c-2.212,0.525-2.31-1.479-2.511-2.925
	c-0.215-1.548,0.021-3.307,1.739-3.718C392.924,185.216,392.898,187.256,393.288,188.66z"/>
<path fill="#F0F2F8" d="M320.477,298.478c-1.963-0.284-2.068-1.882-2.058-3.405c0.01-1.51,0.059-3.359,2.145-3.348
	c2.063,0.011,2.137,1.845,2.137,3.357C322.701,296.593,322.684,298.246,320.477,298.478z"/>
<path fill="#F0F2F8" d="M393.317,370.603c-0.389,1.403-0.33,3.469-2.566,2.929c-1.732-0.418-1.954-2.198-1.747-3.745
	c0.195-1.457,0.311-3.479,2.53-2.944C393.257,367.258,393.384,369.015,393.317,370.603z"/>
<path fill="#F0F2F8" d="M417.075,165.289c-0.602,2.137-0.534,4.184-2.766,3.646c-1.721-0.415-1.964-2.168-1.759-3.711
	c0.193-1.448,0.368-3.544,2.489-2.853C416.06,162.705,416.589,164.542,417.075,165.289z"/>
<path fill="#F0F2F8" d="M322.711,165.517c-0.141,1.505-0.085,3.357-2.172,3.346c-2.063-0.011-2.128-1.845-2.139-3.357
	c-0.011-1.526,0.07-3.361,2.142-3.348C322.579,162.169,322.604,163.984,322.711,165.517z"/>
<path fill="#F0F2F8" d="M391.056,246.72c-1.963-0.284-2.068-1.882-2.058-3.405c0.01-1.51,0.059-3.359,2.145-3.348
	c2.063,0.01,2.137,1.845,2.137,3.357C393.28,244.835,393.263,246.488,391.056,246.72z"/>
<path fill="#F0F2F8" d="M369.761,294.528c0.034,1.567-0.069,3.316-1.796,3.726c-2.212,0.525-2.31-1.479-2.511-2.926
	c-0.215-1.548,0.021-3.307,1.739-3.717C369.398,291.085,369.372,293.125,369.761,294.528z"/>
<path fill="#A7B0C2" d="M112.126,405.082c-4.17-1.193-3.241-4.698-3.309-7.643c-0.054-2.355,0.249-5.278,3.159-5.309
	c4.669-0.051,3.801,3.952,3.894,6.863C115.957,401.705,115.901,404.578,112.126,405.082z"/>
<path fill="#A7B0C2" d="M144.923,391.954c3.893,0.342,3.923,3.251,3.882,5.953c-0.045,2.942,0.747,6.901-3.798,7.011
	c-2.908,0.07-3.303-2.854-3.247-5.237C141.827,396.741,140.859,393.257,144.923,391.954z"/>
<path fill="#FFFFFF" d="M169.76,166.111c-1.229,1.527-2.299,3.124-3.629,4.463c-9.641,9.71-19.311,19.393-29.033,29.022
	c-1.867,1.849-3.963,4.698-6.868,2.076c-3.395-3.064,0.396-4.834,2.033-6.505c9.85-10.052,19.834-19.975,29.833-29.881
	c1.545-1.53,2.965-4.056,5.752-2.42C168.676,163.353,168.982,164.729,169.76,166.111z"/>
<path fill="#FEFEFE" d="M188.01,177.004c-3.216,0.016-5.014-2.627-3.033-5.171c7.159-9.193,15.099-17.842,24.796-24.392
	c2.715-1.834,5.028,0.884,4.421,4.435C213.725,154.619,191.017,176.73,188.01,177.004z"/>
<path fill="#FEFEFE" d="M85.049,153.349c-0.439,0.939-0.689,2.204-1.444,2.975c-7.087,7.228-14.209,14.425-21.448,21.499
	c-1.745,1.706-4.123,2.518-6.207,0.452c-1.641-1.627-1.252-3.881,0.109-5.288c7.307-7.552,14.613-15.124,22.312-22.267
	C80.963,148.315,84.217,148.419,85.049,153.349z"/>
<path fill="#FFFFFF" d="M116.898,145.652c0.011,2.054-19.486,21.412-21.167,20.882c-2.71-0.856-3.904-3.253-1.979-5.322
	c5.776-6.207,11.777-12.236,18.073-17.91C114.01,141.333,116.064,143.126,116.898,145.652z"/>
<path fill="#FCFCFD" d="M51.616,186.512c-0.141,2.58-1.71,4.037-4.176,4.506c-2.164,0.411-3.899-0.517-4.054-2.768
	c-0.204-2.972,1.151-5.283,4.427-5.373C49.911,182.818,51.095,184.414,51.616,186.512z"/>
<path fill="#FCFCFD" d="M176.393,188.772c-2.48-0.101-3.776-1.295-3.659-3.522c0.13-2.483,1.419-4.475,4.024-4.648
	c2.643-0.176,4.326,1.513,4.117,4.166C180.668,187.393,178.626,188.482,176.393,188.772z"/>
</svg>
