<?xml version="1.0" encoding="utf-8"?>
<!-- Generator: Adobe Illustrator 17.0.0, SVG Export Plug-In . SVG Version: 6.00 Build 0)  -->
<!DOCTYPE svg PUBLIC "-//W3C//DTD SVG 1.1//EN" "http://www.w3.org/Graphics/SVG/1.1/DTD/svg11.dtd">
<svg version="1.1" id="Layer_1" xmlns="http://www.w3.org/2000/svg" xmlns:xlink="http://www.w3.org/1999/xlink" x="0px" y="0px"
	 width="500px" height="500px" viewBox="0 0 500 500" enable-background="new 0 0 500 500" xml:space="preserve">
<path fill="#9EA8BB" d="M251.872,102.807c50.159,0,100.317-0.036,150.476,0.016c23.221,0.024,33.557,10.327,33.584,33.427
	c0.049,41.215,0.096,82.431-0.068,123.646c-0.026,6.6,0.563,10.999,8.009,14.43c12.113,5.581,16.438,16.895,15.406,30.108
	c-0.768,9.826-0.916,18.329,10.993,23.332c8.409,3.532,12.272,12.71,12.291,22.371c0.067,33.828-0.131,67.657,0.178,101.482
	c0.065,7.064-2.891,8.441-9.051,8.267c-12.044-0.339-24.114-0.394-36.154,0.017c-6.565,0.224-8.901-1.974-8.702-8.625
	c0.406-13.597,0.28-27.217,0.076-40.822c-0.277-18.494-11.422-29.901-29.971-29.927c-98.373-0.138-196.746-0.141-295.118,0.007
	c-17.763,0.027-29.122,11.559-29.467,29.238c-0.273,13.992-0.281,27.999,0.032,41.99c0.134,6.003-1.821,8.298-7.994,8.126
	c-12.821-0.359-25.663-0.296-38.489-0.027c-5.637,0.118-7.362-2.15-7.336-7.559c0.163-34.216,0.014-68.433,0.153-102.649
	c0.043-10.667,5.308-19.576,14.555-23.536c8.557-3.664,9.214-8.991,8.727-16.345c-0.846-12.788-0.823-27.066,12.022-32.902
	c12.67-5.757,11.298-14.596,11.288-24.471c-0.037-38.883-0.059-77.765,0.004-116.648c0.036-22.277,10.647-32.901,32.915-32.926
	C150.778,102.769,201.325,102.807,251.872,102.807z"/>
<path fill="#FFFFFF" d="M251.648,109.804c49.737,0,99.474-0.023,149.212,0.012c18.8,0.013,28.054,9.115,28.075,27.629
	c0.045,40.8-0.227,81.603,0.208,122.398c0.092,8.61-2.121,11.275-10.983,11.18c-26.539-0.284-26.541,0.117-26.544-26.893
	c-0.001-8.16,0.069-16.321-0.047-24.48c-0.125-8.834-4.612-14.022-13.54-14.074c-29.919-0.174-59.84-0.213-89.758,0.037
	c-8.928,0.075-13.238,5.568-13.279,14.351c-0.064,13.6-0.36,27.211,0.095,40.795c0.242,7.22-1.392,10.773-9.519,10.183
	c-8.89-0.646-17.895-0.61-26.791-0.007c-7.933,0.538-11.095-1.775-10.664-10.244c0.67-13.177,0.09-26.414,0.193-39.625
	c0.083-10.648-5.065-15.656-15.683-15.622c-28.365,0.09-56.732-0.086-85.097,0.084c-11.727,0.07-15.721,4.377-15.861,16.515
	c-0.156,13.598-0.274,27.205,0.059,40.797c0.149,6.086-2.031,7.823-8.048,8.1c-29.39,1.353-29.382,1.535-29.382-27.48
	c0-34.583-0.01-69.166,0.004-103.749c0.009-21.742,8.326-29.903,30.47-29.907C153.728,109.798,202.688,109.803,251.648,109.804z"/>
<path fill="#FFFFFF" d="M250.979,373.467c-48.178-0.005-96.357-0.045-144.535,0.011c-26.733,0.031-39.052,12.479-39.144,39.349
	c-0.037,10.879-0.212,21.763,0.065,32.635c0.142,5.567-2.017,7.905-7.487,7.331c-0.768-0.081-1.553-0.018-2.33,0.001
	c-29.919,0.705-29.919,0.706-29.919-29.119c0-23.312-0.08-46.625,0.028-69.936c0.076-16.494,7.884-24.562,24.12-24.57
	c133.267-0.064,266.535-0.063,399.802,0.001c15.706,0.008,23.906,8.065,23.986,23.526c0.158,30.305-0.14,60.613,0.185,90.915
	c0.076,7.051-2.004,9.222-9.194,9.361c-30.613,0.592-30.608,0.836-30.609-29.776c0-4.662,0.067-9.326-0.023-13.987
	c-0.426-22.232-13.497-35.584-35.75-35.673C350.444,373.335,300.711,373.472,250.979,373.467z"/>
<path fill="#FFFFFF" d="M251.44,322.13c-62.535,0-125.072-0.21-187.604,0.218c-9.807,0.067-13.53-1.765-13.163-12.577
	c0.824-24.266,7.844-31.971,32.165-31.972c113.418-0.002,226.836-0.009,340.253,0.006c22.982,0.003,36.303,18.707,29.039,40.5
	c-2.05,6.149-7.053,3.697-10.755,3.707c-60.593,0.167-121.186,0.119-181.779,0.119C256.877,322.13,254.158,322.13,251.44,322.13z"/>
<path fill="#FFFFFF" d="M333.089,270.795c-13.951,0.001-27.912-0.297-41.85,0.128c-6.872,0.21-9.729-1.653-9.431-9.044
	c0.531-13.155,0.265-26.348,0.113-39.522c-0.078-6.771,2.776-9.947,9.697-9.92c27.515,0.107,55.031,0.149,82.545-0.033
	c7.365-0.049,10.628,2.901,10.506,10.342c-0.217,13.173-0.339,26.36,0.064,39.524c0.201,6.575-2.039,8.827-8.63,8.647
	C361.774,270.523,347.428,270.794,333.089,270.795z"/>
<path fill="#FFFFFF" d="M168.947,270.793c-13.951,0.001-27.91-0.28-41.85,0.123c-6.645,0.192-8.781-2.168-8.585-8.69
	c0.395-13.164,0.288-26.352,0.059-39.524c-0.13-7.489,3.211-10.346,10.536-10.298c27.126,0.177,54.255,0.173,81.381-0.002
	c7.114-0.046,10.958,2.312,10.845,9.996c-0.2,13.561-0.308,27.133,0.059,40.687c0.172,6.339-2.491,7.905-8.268,7.798
	C198.403,270.61,183.673,270.792,168.947,270.793z"/>
<path fill="#A1AABD" d="M153.94,149.932c0.648-0.155,1.283-0.352,1.904-0.593c1.632-1.264,3.263-1.264,4.895,0
	c0.622,0.242,1.258,0.441,1.907,0.598c3.603,0.962,5.88,3.249,6.848,6.846c0.155,0.649,0.353,1.284,0.594,1.905
	c1.264,1.632,1.264,3.263,0,4.895c-0.242,0.623-0.44,1.259-0.595,1.909c-0.966,3.599-3.25,5.88-6.849,6.846
	c-0.648,0.156-1.282,0.355-1.902,0.599c-1.634,1.261-3.268,1.261-4.902,0c-0.622-0.244-1.258-0.443-1.907-0.596
	c-3.595-0.972-5.879-3.252-6.843-6.852c-0.155-0.649-0.354-1.284-0.595-1.905c-1.264-1.632-1.264-3.263,0-4.895
	c0.242-0.622,0.441-1.258,0.597-1.906C148.054,153.178,150.343,150.9,153.94,149.932z"/>
<path fill="#A1AABD" d="M254.069,149.338c0.622,0.242,1.258,0.441,1.907,0.598c3.603,0.962,5.88,3.249,6.848,6.846
	c0.155,0.649,0.353,1.284,0.594,1.905c1.264,1.632,1.264,3.263,0,4.895c-0.242,0.623-0.44,1.259-0.595,1.909
	c-0.966,3.599-3.25,5.88-6.849,6.846c-0.648,0.156-1.282,0.355-1.902,0.599c-1.634,1.261-3.268,1.261-4.902,0
	c-0.622-0.244-1.258-0.443-1.907-0.596c-3.595-0.972-5.879-3.252-6.843-6.852c-0.155-0.649-0.354-1.284-0.595-1.905
	c-1.264-1.632-1.264-3.263,0-4.895c0.242-0.622,0.441-1.258,0.597-1.906c0.963-3.603,3.251-5.881,6.848-6.85
	c0.648-0.155,1.283-0.352,1.904-0.593C250.806,148.074,252.438,148.074,254.069,149.338z"/>
<path fill="#A1AABD" d="M347.399,149.338c0.622,0.242,1.258,0.441,1.907,0.598c3.603,0.962,5.88,3.249,6.848,6.846
	c0.155,0.649,0.353,1.284,0.594,1.905c1.264,1.632,1.264,3.263,0,4.895c-0.242,0.623-0.44,1.259-0.595,1.909
	c-0.966,3.599-3.25,5.88-6.849,6.846c-0.648,0.156-1.282,0.355-1.902,0.599c-1.634,1.261-3.268,1.261-4.902,0
	c-0.622-0.244-1.258-0.443-1.907-0.596c-3.595-0.972-5.879-3.252-6.843-6.852c-0.155-0.649-0.354-1.284-0.595-1.905
	c-1.264-1.632-1.264-3.263,0-4.895c0.242-0.622,0.441-1.258,0.597-1.906c0.963-3.603,3.251-5.881,6.848-6.85
	c0.648-0.155,1.283-0.352,1.904-0.593C344.136,148.074,345.768,148.074,347.399,149.338z"/>
<path fill="#D5D9E2" d="M169.494,156.783c-2.282-2.284-4.563-4.568-6.846-6.849c8.528-0.903,10.833-11.455,20.327-13.482
	C180.949,145.946,170.394,148.25,169.494,156.783z"/>
<path fill="#D5D9E2" d="M240.42,165.488c2.28,2.286,4.56,4.571,6.842,6.854c-8.527,0.899-10.836,11.444-20.324,13.478
	C228.976,176.329,239.517,174.019,240.42,165.488z"/>
<path fill="#D5D9E2" d="M153.94,149.932c-2.285,2.282-4.569,4.565-6.851,6.848c-0.902-8.529-11.454-10.833-13.481-20.328
	C143.099,138.483,145.406,149.034,153.94,149.932z"/>
<path fill="#D5D9E2" d="M247.27,149.932c-2.285,2.282-4.569,4.565-6.851,6.848c-0.902-8.529-11.454-10.833-13.481-20.328
	C236.43,138.483,238.736,149.034,247.27,149.932z"/>
<path fill="#D5D9E2" d="M262.824,156.783c-2.282-2.284-4.563-4.568-6.846-6.849c8.528-0.903,10.833-11.455,20.327-13.482
	C274.279,145.946,263.725,148.25,262.824,156.783z"/>
<path fill="#D5D9E2" d="M340.6,149.932c-2.285,2.282-4.569,4.565-6.851,6.848c-0.902-8.529-11.454-10.833-13.481-20.328
	C329.76,138.483,332.066,149.034,340.6,149.932z"/>
<path fill="#D5D9E2" d="M356.154,156.783c-2.282-2.284-4.563-4.568-6.846-6.849c8.528-0.903,10.833-11.455,20.327-13.482
	C367.609,145.946,357.055,148.25,356.154,156.783z"/>
<path fill="#D5D9E2" d="M349.305,172.337c2.285-2.281,4.57-4.562,6.851-6.844c1.203,8.333,10.926,11.172,14.161,20.472
	C360.141,183.79,357.837,173.238,349.305,172.337z"/>
<path fill="#D5D9E2" d="M333.751,165.488c2.28,2.286,4.56,4.571,6.842,6.854c-8.527,0.899-10.836,11.444-20.324,13.478
	C322.306,176.329,332.847,174.019,333.751,165.488z"/>
<path fill="#D5D9E2" d="M162.644,172.337c2.285-2.281,4.57-4.562,6.851-6.844c1.203,8.333,10.926,11.172,14.161,20.472
	C173.481,183.79,171.176,173.238,162.644,172.337z"/>
<path fill="#D5D9E2" d="M147.09,165.488c2.28,2.286,4.56,4.571,6.842,6.854c-8.527,0.899-10.836,11.444-20.324,13.478
	C135.646,176.329,146.187,174.019,147.09,165.488z"/>
<path fill="#D5D9E2" d="M255.974,172.337c2.285-2.281,4.57-4.562,6.851-6.844c1.203,8.333,10.926,11.172,14.161,20.472
	C266.811,183.79,264.506,173.238,255.974,172.337z"/>
<path fill="#D1D5DE" d="M342.501,172.936c1.634,0,3.267-0.001,4.901-0.001c-0.708,2.669,1.271,6.171-2.45,8.062
	C341.23,179.106,343.21,175.604,342.501,172.936z"/>
<path fill="#D1D5DE" d="M249.171,172.936c1.634,0,3.267-0.001,4.901-0.001c-0.708,2.669,1.271,6.171-2.45,8.062
	C247.9,179.106,249.879,175.604,249.171,172.936z"/>
<path fill="#D1D5DE" d="M356.749,163.582c-0.001-1.631-0.001-3.262-0.001-4.894c2.671,0.704,6.172-1.276,8.065,2.447
	C362.92,164.857,359.419,162.878,356.749,163.582z"/>
<path fill="#D1D5DE" d="M333.155,158.688c0,1.631,0.001,3.262,0.001,4.894c-2.784-0.34-5.962,0.597-8.271-2.042
	C326.984,157.413,330.485,159.392,333.155,158.688z"/>
<path fill="#D1D5DE" d="M239.825,158.688c0,1.631,0.001,3.262,0.001,4.894c-2.784-0.34-5.962,0.597-8.271-2.042
	C233.654,157.413,237.155,159.392,239.825,158.688z"/>
<path fill="#D1D5DE" d="M170.088,163.582c-0.001-1.631-0.001-3.262-0.001-4.894c2.671,0.704,6.172-1.276,8.065,2.447
	C176.26,164.857,172.759,162.878,170.088,163.582z"/>
<path fill="#D1D5DE" d="M146.495,158.688c0,1.631,0.001,3.262,0.001,4.894c-2.784-0.34-5.962,0.597-8.271-2.042
	C140.324,157.413,143.825,159.392,146.495,158.688z"/>
<path fill="#D1D5DE" d="M155.841,172.936c1.634,0,3.267-0.001,4.901-0.001c-0.708,2.669,1.271,6.171-2.45,8.062
	C154.57,179.106,156.549,175.604,155.841,172.936z"/>
<path fill="#D1D5DE" d="M263.419,163.582c-0.001-1.631-0.001-3.262-0.001-4.894c2.671,0.704,6.172-1.276,8.065,2.447
	C269.59,164.857,266.089,162.878,263.419,163.582z"/>
<path fill="#D1D5DE" d="M347.399,149.338c-1.631,0-3.262,0.001-4.894,0.001c0.704-2.671-1.275-6.172,2.447-8.065
	C348.674,143.167,346.695,146.668,347.399,149.338z"/>
<path fill="#D1D5DE" d="M254.069,149.338c-1.631,0-3.262,0.001-4.894,0.001c0.704-2.671-1.275-6.172,2.447-8.065
	C255.343,143.167,253.365,146.668,254.069,149.338z"/>
<path fill="#D1D5DE" d="M160.739,149.338c-1.631,0-3.262,0.001-4.894,0.001c0.704-2.671-1.275-6.172,2.447-8.065
	C162.013,143.167,160.035,146.668,160.739,149.338z"/>
<path fill="#F9F9FB" d="M162.456,160.655c-0.019,2.573-1.304,4.234-3.917,4.55c-2.198,0.265-3.646-1.158-4.192-3.039
	c-0.767-2.643,0.811-4.539,3.167-5.095C160.071,156.466,161.707,158.12,162.456,160.655z"/>
<path fill="#F9F9FB" d="M251.266,165.328c-2.576-0.692-4.192-2.306-3.659-4.879c0.501-2.418,2.387-3.965,5.009-3.268
	c1.88,0.499,3.312,1.966,3.115,4.148C255.493,163.976,253.807,165.234,251.266,165.328z"/>
<path fill="#F9F9FB" d="M349.161,161.371c-0.604,2.637-2.17,4.258-4.772,3.823c-2.494-0.417-3.996-2.343-3.44-4.913
	c0.406-1.872,1.874-3.363,4.065-3.225C347.657,157.224,348.998,158.838,349.161,161.371z"/>
</svg>
